<?xml version="1.0" encoding="UTF-8"?>
<svg width="70px" height="70px" viewBox="0 0 70 70" version="1.1" xmlns="http://www.w3.org/2000/svg" xmlns:xlink="http://www.w3.org/1999/xlink">
    <title>toss_it_pg13-tap</title>
    <defs>
        <filter x="-45.0%" y="-27.8%" width="190.0%" height="152.8%" filterUnits="objectBoundingBox" id="filter-1">
            <feOffset dx="0" dy="3" in="SourceAlpha" result="shadowOffsetOuter1"></feOffset>
            <feGaussianBlur stdDeviation="2" in="shadowOffsetOuter1" result="shadowBlurOuter1"></feGaussianBlur>
            <feColorMatrix values="0 0 0 0 0.509658592   0 0 0 0 0.509658592   0 0 0 0 0.509658592  0 0 0 0.5 0" type="matrix" in="shadowBlurOuter1" result="shadowMatrixOuter1"></feColorMatrix>
            <feMerge>
                <feMergeNode in="shadowMatrixOuter1"></feMergeNode>
                <feMergeNode in="SourceGraphic"></feMergeNode>
            </feMerge>
        </filter>
    </defs>
    <g id="toss_it_pg13-tap" stroke="none" stroke-width="1" fill="none" fill-rule="evenodd">
        <g id="tap-hand-copy-13" filter="url(#filter-1)" transform="translate(20.000000, 8.000000)">
            <path d="M29.999176,27.0193417 C29.9834447,26.0296603 28.8360348,25.0447676 27.2728694,24.7401639 C26.0315962,24.4982618 24.8720507,24.75236 24.2529871,25.3234078 C24.2368064,24.3346991 23.0921682,23.3494322 21.5312502,23.0419853 C20.4081862,22.8208091 19.350969,23.0059955 18.7005178,23.4655573 C18.5051503,22.5597523 17.3709995,21.6961473 15.8768271,21.4018692 C14.5840901,21.1472471 13.3791486,21.3893738 12.7376118,21.9539119 L12.734091,21.9528644 C12.734091,21.9528644 12.7338663,21.9510686 12.7336415,21.948375 C12.7032277,21.654471 11.0390076,5.56487207 11.0376592,5.5528256 C10.8804213,4.15812832 9.70102441,3.50492514 8.5366097,3.54622734 C7.63857808,3.57810186 6.74931102,4.02307314 6.34471736,4.86011598 C6.33730119,4.87545465 6.33078394,4.89146674 6.32374232,4.90702988 C6.1927981,5.19524737 6.11758758,5.52768513 6.11818686,5.90479212 L6.10680041,32.905054 L6.10687532,32.9056526 L6.10680041,32.9056526 C6.10065772,32.9056526 6.09466485,32.9053533 6.08852216,32.9053533 C4.59202752,32.8985444 4.42774796,32.0630729 4.42774796,31.0311914 C4.42774796,31.0311914 4.46025928,23.5628269 4.44834845,23.5628269 C3.84366783,23.5628269 3.31007763,23.6942906 2.84518072,23.9293839 C2.68696894,24.0094443 2.53767155,24.1028232 2.39541579,24.2060787 C2.0470802,24.458905 1.74578865,24.7771264 1.49393827,25.1498937 C-0.417263001,27.9784954 0.00373614255,33.8380945 0.123968104,36.4230731 C0.164569801,37.295582 0.325852925,38.1597107 0.634335927,38.9769255 C1.21744221,40.5213432 2.00969968,41.9809867 2.99065764,43.3145537 L4.58910599,46.5058965 L4.58910599,54 L18.6617889,54 L25.4789037,54 L25.5508181,54 L26.5685573,54 L26.5685573,48.8183704 L26.5685573,46.5250511 L26.5685573,46.5057468 L28.78959,42.7791217 C29.5814729,41.4504929 29.9994756,39.9329366 29.9994756,38.3866483 L29.9994756,30.1315219 L29.9994756,29.9319694 L29.9995505,29.6161423 L30,27.0200151 L29.999176,27.0193417 Z" id="Path" fill="#FF918F" fill-rule="nonzero"></path>
            <path d="M6.1067255,38.2373019 L6.1067255,32.9796524 L6.08844725,32.9052785 C4.5919526,32.8984696 4.42767305,32.062998 4.42767305,31.0311166 C4.42767305,31.0311166 4.46018437,23.5627521 4.44827354,23.5627521 C3.84359292,23.5627521 3.31000272,23.6942158 2.8451058,23.9293091 C2.68689403,24.0093695 2.53759664,24.1027484 2.39534088,24.2060038 L2.39534088,31.9143251 C2.39534088,37.5015692 6.1067255,38.2373019 6.1067255,38.2373019 Z" id="Path" fill="#FF918F" fill-rule="nonzero" opacity="0.5"></path>
            <path d="M12.7336415,21.9483002 C12.7032277,21.6543962 11.0390076,5.56479725 11.0376592,5.55275078 C10.8804213,4.1580535 9.70102441,3.50485032 8.5366097,3.54615251 L9.58708496,21.0031384 L12.7336415,21.9483002 Z" id="Path" fill="#FF918F" fill-rule="nonzero" opacity="0.5"></path>
            <path d="M29.999176,27.0193417 C29.9834447,26.0296603 28.8360348,25.0447676 27.2728694,24.7401639 C26.0315962,24.4982618 24.8720507,24.75236 24.2529871,25.3234078 C24.2368064,24.3346991 23.0921682,23.3494322 21.5312502,23.0419853 C20.4081862,22.8208091 19.350969,23.0059955 18.7005178,23.4655573 C18.5051503,22.5597523 17.3709995,21.6961473 15.8768271,21.4018692 L15.8768271,25.802199 L18.6617889,26.6896724 L18.6617889,54 L25.4789037,54 L25.5508181,54 L26.5685573,54 L26.5685573,48.8183704 L26.5685573,46.5250511 L26.5685573,46.5057468 L28.78959,42.7791217 C29.5814729,41.4504929 29.9994756,39.9329366 29.9994756,38.3866483 L29.9994756,30.1315219 L29.9994756,29.9319694 L29.9995505,29.6161423 L30,27.0200151 L29.999176,27.0193417 Z" id="Path" fill="#FF918F" fill-rule="nonzero"></path>
            <path d="M2.82023539,7.5418405 C2.75161703,7.29836706 2.69813066,7.0486085 2.66097486,6.79353753 C2.6199237,6.51197927 2.59864901,6.22391143 2.59864901,5.93098011 C2.59864901,2.6553869 5.25716121,0 8.5366097,0 C11.8160582,0 14.4745704,2.6553869 14.4745704,5.93098011 C14.4745704,6.22398625 14.4532957,6.51197927 14.4122445,6.79353753 C14.3750138,7.0486085 14.3216024,7.29836706 14.252984,7.5418405" id="Path" stroke="#FF918F" stroke-width="3.04"></path>
            <polygon id="Path" fill="#3C3C3B" fill-rule="nonzero" points="6.14438252 32.9435419 6.14423252 32.9423419 6.14423252 32.9435419"></polygon>
            <polygon id="Path" fill="#1D1D1B" fill-rule="nonzero" opacity="0.5" points="6.14438252 32.9435419 6.14423252 32.9423419 6.14423252 32.9435419"></polygon>
        </g>
    </g>
</svg>