<?xml version="1.0" encoding="UTF-8"?>
<svg width="70px" height="70px" viewBox="0 0 70 70" version="1.1" xmlns="http://www.w3.org/2000/svg" xmlns:xlink="http://www.w3.org/1999/xlink">
    <title>toss_it_pg13-swipe_left</title>
    <defs>
        <filter color-interpolation-filters="auto" id="filter-1">
            <feColorMatrix in="SourceGraphic" type="matrix" values="0 0 0 0 1.000000 0 0 0 0 0.568627 0 0 0 0 0.560784 0 0 0 1.000000 0"></feColorMatrix>
        </filter>
        <filter x="-28.7%" y="-22.1%" width="157.4%" height="144.3%" filterUnits="objectBoundingBox" id="filter-2">
            <feOffset dx="0" dy="3" in="SourceAlpha" result="shadowOffsetOuter1"></feOffset>
            <feGaussianBlur stdDeviation="2" in="shadowOffsetOuter1" result="shadowBlurOuter1"></feGaussianBlur>
            <feColorMatrix values="0 0 0 0 0.509658592   0 0 0 0 0.509658592   0 0 0 0 0.509658592  0 0 0 0.5 0" type="matrix" in="shadowBlurOuter1" result="shadowMatrixOuter1"></feColorMatrix>
            <feMerge>
                <feMergeNode in="shadowMatrixOuter1"></feMergeNode>
                <feMergeNode in="SourceGraphic"></feMergeNode>
            </feMerge>
        </filter>
    </defs>
    <g id="toss_it_pg13-swipe_left" stroke="none" stroke-width="1" fill="none" fill-rule="evenodd">
        <g filter="url(#filter-1)" id="swipe-left-hand-copy-3">
            <g filter="url(#filter-2)" transform="translate(12.000000, 5.000000)">
                <path d="M6.56555174,4.41277074 C29.477371,5.60534263 36.8943815,13.209618 36.8943815,22.4126049" id="Path" stroke="#6F859C" stroke-width="3.04"></path>
                <polygon id="Path" fill="#6F859C" fill-rule="nonzero" points="7.76380212 8.96144583 0 4.25056957 8.03463065 0"></polygon>
                <polygon id="Path" fill="#1D1D1B" fill-rule="nonzero" points="40.7293776 29.0537874 40.527648 28.5772981 40.6512789 28.8693351"></polygon>
                <path d="M3.0709923,38.5851475 C3.10313424,38.6359188 3.13360843,38.6867831 3.16438585,38.7376475 C3.13391166,38.6866902 3.10283101,38.6358258 3.0709923,38.5851475 Z" id="Path" fill="#3C3C3B" fill-rule="nonzero"></path>
                <path d="M3.20664483,38.924631 C3.21392225,38.945981 3.22089644,38.967331 3.22802225,38.988681 C3.22089644,38.967331 3.21392225,38.9458285 3.20664483,38.924631 Z" id="Path" fill="#3C3C3B" fill-rule="nonzero"></path>
                <polygon id="Path" fill="#3C3C3B" fill-rule="nonzero" points="44.4048967 43.3354315 44.0677911 45.6141893 46.8911652 52.2787468 46.8954362 52.2769487 44.0720621 45.6124661"></polygon>
                <path d="M40.5580028,28.5405874 L40.7685794,29.0377546 L44.1695329,36.8861933 C44.1521438,36.8432643 44.1355936,36.8000356 44.117518,36.7573314 C44.117518,36.7573314 39.9586107,27.045265 39.8474879,26.7638666 C39.7891426,26.61605 39.7147811,26.4744518 39.6259286,26.3404204 L40.4812007,28.3592068 C40.5084285,28.4182436 40.5341309,28.4786288 40.5580028,28.5405874 Z" id="Path" fill="#3C3C3B" fill-rule="nonzero"></path>
                <path d="M3.07336172,38.5637182 L3.04319075,38.500638 C3.06578108,38.5514264 3.08897785,38.6020796 3.11096172,38.653138 C3.09807462,38.6232864 3.08655204,38.5932997 3.07336172,38.5637182 Z" id="Path" fill="#1D1D1B" fill-rule="nonzero"></path>
                <path d="M3.10621977,38.7080158 C3.15428106,38.7725217 3.20203913,38.8371774 3.24691655,38.9021328 C3.20188752,38.8373272 3.1547359,38.7725966 3.10621977,38.7080158 Z" id="Path" fill="#1D1D1B" fill-rule="nonzero"></path>
                <path d="M40.7685794,29.0377546 L40.5580028,28.5405874 C40.5341309,28.4785539 40.5084285,28.4181686 40.4812007,28.3592068 L39.6259286,26.3404204 C38.9983172,25.393735 37.6415814,24.8263681 35.9884673,25.137135 C34.8572567,25.3497571 33.9260214,25.9034887 33.4137276,26.5828606 C32.7324997,25.875169 31.415042,25.5378056 30.0086556,25.8021972 C28.9059694,26.0095001 27.9934961,26.5409805 27.4736518,27.1968276 C26.7998981,26.471455 25.4674919,26.1225539 24.0439451,26.3901671 C24.0269373,26.3933886 24.0104634,26.3975092 23.9935318,26.4008057 C22.7596642,26.6452687 21.7699312,27.2951222 21.3138471,28.067919 C20.5998238,26.7757788 13.3305449,13.6203278 13.3247486,13.6100638 C12.0911097,11.4257048 8.74682351,12.6354333 8.62570954,14.7770881 C8.60687128,15.1098814 8.66575037,15.4650757 8.82255787,15.8336058 L19.0398331,39.9801524 L19.4233861,40.886606 C19.1865732,41.217826 18.8849323,41.4144153 18.555606,41.4959279 C17.9787893,41.6385751 17.3170098,41.4276761 16.7697851,40.9656462 C16.7697851,40.9656462 10.1530574,34.5199293 10.1444391,34.5114633 C9.0674552,33.4559196 7.69233877,33.7080993 6.84987976,34.5146849 C6.42437923,34.9220982 6.13417856,35.4704356 6.08811254,36.0641743 C6.04288547,36.6457759 6.23103923,37.2703066 6.75355296,37.8467388 L15.0314793,47.8947452 C16.386766,49.5398321 18.0234825,50.9403062 19.8681825,52.0333847 L23.3368622,54.088732 L26.2647238,61 L39.5087043,55.5860023 L46.0399354,52.9160887 L47,52.5236593 L46.8955125,52.2769487 L46.8912415,52.2786718 L44.0678674,45.6141144 L44.404973,43.3353566 L44.702648,41.2987393 C44.7152322,41.2126565 44.7259861,41.1264239 44.7359009,41.0401164 C44.738494,41.016217 44.741316,40.9922427 44.7436803,40.9683434 C44.747875,40.9287108 44.7512308,40.8890034 44.7548917,40.8493709 C44.7944749,40.3945333 44.8007289,39.9405948 44.7707555,39.4890537 C44.7686963,39.4588611 44.7661794,39.4287434 44.7638151,39.3986257 C44.7595441,39.3433349 44.7548917,39.2880442 44.7495529,39.2328283 C44.7427651,39.1642768 44.7351382,39.0958751 44.7266725,39.0275483 C44.724537,39.0102419 44.7226302,38.9929354 44.7204185,38.975629 C44.6471247,38.4136563 44.5173161,37.8588009 44.3323656,37.3192292 C44.3287048,37.3087404 44.3252727,37.2982517 44.3216118,37.2877629 C44.2990364,37.2227326 44.2750119,37.1581518 44.2508349,37.0936459 C44.2353524,37.0526649 44.2200225,37.0116838 44.2038537,36.9707776 C44.1927948,36.9425329 44.1811257,36.914438 44.1697618,36.8861933 L40.7685794,29.0377546 Z" id="Path" fill="#6F859C" fill-rule="nonzero"></path>
                <path d="M44.0677911,45.6141893 L44.4048967,43.3354315 L44.7025717,41.2988142 C44.715156,41.2127314 44.7259098,41.1264989 44.7358247,41.0401914 C44.7384178,41.016292 44.7412397,40.9923177 44.743604,40.9684183 C44.7477988,40.9287857 44.7511546,40.8890783 44.7548154,40.8494458 C44.7943987,40.3946082 44.8006527,39.9406697 44.7706792,39.4891287 C44.76862,39.458936 44.7661031,39.4288183 44.7637388,39.3987006 C44.7594678,39.3434098 44.7548154,39.2881191 44.7494767,39.2329033 C44.7426888,39.1643517 44.735062,39.09595 44.7265962,39.0276233 C44.7244607,39.0103168 44.722554,38.9930104 44.7203422,38.9757039 C44.6470484,38.4137312 44.5172399,37.8588758 44.3322894,37.3193041 C44.3286285,37.3088153 44.3251964,37.2983266 44.3215356,37.2878378 C44.2989602,37.2228075 44.2749357,37.1582267 44.2507586,37.0937209 C44.2352762,37.0527398 44.2199463,37.0117587 44.2037774,36.9708525 C44.1927185,36.9426078 44.1810495,36.9145129 44.1696855,36.8862682 L40.7685794,29.0377546 L40.5580028,28.5405874 C40.5341309,28.4785539 40.5084285,28.4181686 40.4812007,28.3592068 L39.6259286,26.3404204 C38.9983172,25.393735 37.6415814,24.8263681 35.9884673,25.137135 C34.8572567,25.3497571 33.9260214,25.9034887 33.4137276,26.5828606 C32.7324997,25.875169 31.415042,25.5378056 30.0086556,25.8021972 C28.9059694,26.0095001 27.9934961,26.5409805 27.4736518,27.1968276 C26.7998981,26.471455 25.4674919,26.1225539 24.0439451,26.3901671 C24.0269373,26.3933886 24.0104634,26.3975092 23.9935318,26.4008057 L25.7527351,30.5534552 L28.7747117,30.2484571 L39.5087043,55.5860772 L46.0399354,52.9161636 L47,52.5237342 L46.8955125,52.2770236 L46.8912415,52.2787468 L44.0677911,45.6141893 Z" id="Path" fill="#1D1D1B" fill-rule="nonzero"></path>
                <path d="M20.094928,45.0772398 L21.2863905,45.283194 L19.0398331,39.9802273 L19.0398331,39.9802273 L19.4233861,40.8866809 C19.1865732,41.217826 18.8849323,41.4144902 18.555606,41.4960028 C17.9787893,41.63865 17.3170098,41.427751 16.7697851,40.9657212 C16.7697851,40.9657212 10.1530574,34.5200042 10.1444391,34.5115382 C9.0674552,33.4559945 7.69233877,33.7081742 6.84987976,34.5147598 L14.1974861,41.9963916 C15.7821876,43.6100122 17.8469215,44.6887062 20.094928,45.0772398 Z" id="Path" fill="#1D1D1B" fill-rule="nonzero" opacity="0.5"></path>
                <path d="M21.3703618,28.1702593 C21.2266725,27.910213 13.3225368,13.6162072 13.3165116,13.6055686 C12.6224706,12.3766607 11.258108,12.2259971 10.1797513,12.7116267 L18.0425496,28.505525 L21.3703618,28.1702593 Z" id="Path" fill="#1D1D1B" fill-rule="nonzero" opacity="0.5"></path>
            </g>
        </g>
    </g>
</svg>