<?xml version="1.0" encoding="UTF-8"?>
<svg width="70px" height="70px" viewBox="0 0 70 70" version="1.1" xmlns="http://www.w3.org/2000/svg" xmlns:xlink="http://www.w3.org/1999/xlink">
    <title>toss_it_pg13-vertical_scroll</title>
    <defs>
        <filter x="-35.5%" y="-19.9%" width="171.1%" height="139.7%" filterUnits="objectBoundingBox" id="filter-1">
            <feOffset dx="0" dy="3" in="SourceAlpha" result="shadowOffsetOuter1"></feOffset>
            <feGaussianBlur stdDeviation="2" in="shadowOffsetOuter1" result="shadowBlurOuter1"></feGaussianBlur>
            <feColorMatrix values="0 0 0 0 0.509658592   0 0 0 0 0.509658592   0 0 0 0 0.509658592  0 0 0 0.5 0" type="matrix" in="shadowBlurOuter1" result="shadowMatrixOuter1"></feColorMatrix>
            <feMerge>
                <feMergeNode in="shadowMatrixOuter1"></feMergeNode>
                <feMergeNode in="SourceGraphic"></feMergeNode>
            </feMerge>
        </filter>
    </defs>
    <g id="toss_it_pg13-vertical_scroll" stroke="none" stroke-width="1" fill="none" fill-rule="evenodd">
        <g id="up-down-scroll-copy-3" filter="url(#filter-1)" transform="translate(16.000000, 0.000000)">
            <polygon id="Path" fill="#3C3C3B" fill-rule="nonzero" points="37.9241526 40.6731317 37.9232406 43.2716856 37.9247606 40.6733564"></polygon>
            <polygon id="Path" fill="#1D1D1B" fill-rule="nonzero" points="37.9235148 43.7875469 37.9236668 43.2716856 37.9235148 43.5878079"></polygon>
            <path d="M32.9076987,8.1266877 L32.9076987,8.14601003 L35.1167752,4.41590149 C35.9043953,3.08603085 36.3201479,1.567056 36.3201479,0.0193223307 L36.3201479,0 C36.3201479,1.54765878 35.9043953,3.06663363 35.1167752,4.39657916 L32.9076987,8.1266877 Z" id="Path" fill="#1D1D1B" fill-rule="nonzero"></path>
            <line x1="4.4969838" y1="14.3100582" x2="4.4969838" y2="30.9628367" id="Path" stroke="#FF918F" stroke-width="2.97571703"></line>
            <polygon id="Path" fill="#FF918F" fill-rule="nonzero" points="0 15.6212806 4.45779117 7.86111799 8.9160294 15.6212806"></polygon>
            <line x1="23.0637623" y1="24.5138965" x2="23.0637623" y2="7.86111799" id="Path" stroke="#FF918F" stroke-width="2.97571703"></line>
            <polygon id="Path" fill="#FF918F" fill-rule="nonzero" points="27.4832549 23.2026741 23.0253892 30.9628367 18.5672255 23.2026741"></polygon>
            <path d="M34.1858118,40.994122 C34.1701652,40.0035156 33.0289319,39.0177022 31.4741813,38.7128138 C30.23959,38.4706855 29.0862865,38.7250213 28.4705555,39.2966028 C28.4544618,38.30697 27.3159853,37.3207822 25.7634699,37.0130479 C24.6464516,36.7916649 23.5949255,36.9770244 22.9479758,37.4370157 C22.7536599,36.5303641 21.6256145,35.6659519 20.1394854,35.3713987 C18.8537073,35.1165386 17.6552522,35.3588916 17.0171689,35.9239574 L17.013667,35.9229089 C17.013667,35.9229089 17.0134435,35.9211115 17.01322,35.9184154 C16.9829699,35.6242366 15.3277085,19.5195982 15.3263674,19.5075405 C15.1699759,18.1115395 13.9969278,17.4577258 12.8387813,17.4990666 C11.9455839,17.5309709 11.0611784,17.9763581 10.6586882,18.8141834 C10.651312,18.8295364 10.6448298,18.8455634 10.6378261,18.8611411 C10.5075868,19.149628 10.4327811,19.4823765 10.4333772,19.859836 L10.422052,46.8853359 L10.4221265,46.885935 L10.422052,46.885935 C10.4159424,46.885935 10.4099818,46.8856355 10.4038721,46.8856355 C8.91543333,46.8788202 8.75203811,46.0425677 8.75203811,45.0097217 C8.75203811,45.0097217 8.78437442,37.5343763 8.77252771,37.5343763 C8.17110217,37.5343763 7.64038436,37.6659629 7.17799004,37.9012759 C7.02062994,37.9814112 6.87213624,38.0748773 6.73064626,38.1782293 C6.38418581,38.431292 6.08451614,38.7498108 5.83402151,39.1229265 C3.93310848,41.9541722 4.35184133,47.8192485 4.47142607,50.4066434 C4.5118092,51.2799678 4.67222412,52.1449043 4.97904652,52.9628829 C5.55901387,54.5087443 6.3470065,55.9697521 7.32268385,57.3045657 L8.91252754,60.4988915 L8.91252754,68 L22.9094554,68 L29.6898727,68 L29.7614,68 L30.7736606,68 L30.7736606,62.813527 L30.7736606,60.518064 L30.7736606,60.4987417 L32.9827372,56.7686332 C33.7703573,55.4387625 34.1861098,53.9197877 34.1861098,52.372054 L34.1861098,44.1092113 L34.1861098,43.9094723 L34.1861843,43.59335 L34.1866314,40.9947961 L34.1858118,40.994122 Z" id="Path" fill="#FF918F" fill-rule="nonzero"></path>
            <path d="M10.4219775,52.2225681 L10.4219775,46.960004 L10.4037976,46.8855606 C8.91535883,46.8787453 8.75196361,46.0424928 8.75196361,45.0096468 C8.75196361,45.0096468 8.78429992,37.5343014 8.7724532,37.5343014 C8.17102766,37.5343014 7.64030985,37.665888 7.17791553,37.901201 C7.02055543,37.9813363 6.87206173,38.0748024 6.73057175,38.1781544 L6.73057175,45.8936809 C6.73057175,51.4861476 10.4219775,52.2225681 10.4219775,52.2225681 Z" id="Path" fill="#FF918F" fill-rule="nonzero" opacity="0.5"></path>
            <path d="M17.01322,35.9183405 C16.9829699,35.6241617 15.3277085,19.5195233 15.3263674,19.5074656 C15.1699759,18.1114646 13.9969278,17.4576509 12.8387813,17.4989917 L13.8836017,34.9722952 L17.01322,35.9183405 Z" id="Path" fill="#FF918F" fill-rule="nonzero" opacity="0.5"></path>
            <g id="Group" opacity="0.5" transform="translate(30.773661, 52.372129)" fill="#1D1D1B" fill-rule="nonzero">
                <path d="M0,8.1266877 L0,8.14601003 L2.20907656,4.41590149 C2.99669666,3.08603085 3.4124492,1.567056 3.4124492,0.0193223307 L3.4124492,0 C3.4124492,1.54765878 2.99669666,3.06663363 2.20907656,4.39657916 L0,8.1266877 Z" id="Path"></path>
            </g>
            <path d="M34.1858118,40.994122 C34.1701652,40.0035156 33.0289319,39.0177022 31.4741813,38.7128138 C30.23959,38.4706855 29.0862865,38.7250213 28.4705555,39.2966028 C28.4544618,38.30697 27.3159853,37.3207822 25.7634699,37.0130479 C24.6464516,36.7916649 23.5949255,36.9770244 22.9479758,37.4370157 C22.7536599,36.5303641 21.6256145,35.6659519 20.1394854,35.3713987 L20.1394854,39.7758416 L22.9094554,40.6641445 L22.9094554,68 L29.6898727,68 L29.7614,68 L30.7736606,68 L30.7736606,62.813527 L30.7736606,60.518064 L30.7736606,60.4987417 L32.9827372,56.7686332 C33.7703573,55.4387625 34.1861098,53.9197877 34.1861098,52.372054 L34.1861098,44.1092113 L34.1861098,43.9094723 L34.1861843,43.59335 L34.1866314,40.9947961 L34.1858118,40.994122 Z" id="Path" fill="#FF918F" fill-rule="nonzero"></path>
            <polygon id="Path" fill="#3C3C3B" fill-rule="nonzero" points="10.4608363 46.9252048 10.4606843 46.9239823 10.4606843 46.9252048"></polygon>
            <polygon id="Path" fill="#1D1D1B" fill-rule="nonzero" opacity="0.5" points="10.4608363 46.9252048 10.4606843 46.9239823 10.4606843 46.9252048"></polygon>
        </g>
    </g>
</svg>