<?xml version="1.0" encoding="UTF-8"?>
<svg width="45px" height="45px" viewBox="0 0 45 45" version="1.1" xmlns="http://www.w3.org/2000/svg" xmlns:xlink="http://www.w3.org/1999/xlink">
    <title>icon_x</title>
    <g id="icon_x" stroke="none" stroke-width="1" fill="none" fill-rule="evenodd">
        <path d="M32.6264089,14.0085956 C28.9303319,14.6295978 25.7312652,16.3846893 23.1192108,18.4252652 C20.2411509,15.9000525 17.7350986,14.5236448 17.7350986,14.5236448 C16.5330736,13.7888413 15.0290423,13.9919179 13.8700181,14.5236448 C12.709994,15.0543908 12.709994,16.7221691 13.8700181,16.9497718 C16.4130711,17.9259127 18.6481177,19.2189315 20.6011584,20.6326189 C17.1460864,24.0054554 15.2340465,27.3547467 15.2340465,27.3547467 C14.486031,28.5339641 14.6930353,30.0094575 15.2340465,31.1464899 C15.7760578,32.2845034 17.4760933,32.2845034 17.7080981,31.1464899 C19.0611263,27.7559946 21.0031667,24.9188093 23.0522094,22.5868627 C28.9863331,27.7815018 31.5173858,33.4627397 31.3393821,31.5869796 C30.5413655,27.0143237 27.9073106,23.2186564 25.1672535,20.3765659 C29.9033522,15.8137205 34.3334445,13.8526093 32.6264089,14.0085956 Z" id="Path-Copy-3" fill="#000000" fill-rule="nonzero"></path>
    </g>
</svg>