<?xml version="1.0" encoding="UTF-8"?>
<svg width="45px" height="45px" viewBox="0 0 45 45" version="1.1" xmlns="http://www.w3.org/2000/svg" xmlns:xlink="http://www.w3.org/1999/xlink">
    <title>icon_danger</title>
    <g id="icon_danger" stroke="none" stroke-width="1" fill="none" fill-rule="evenodd">
        <path d="M41.2872958,32.4278918 L26.287221,7.42753468 C25.3847165,5.92151316 23.7562083,5 22.0001996,5 C20.2441908,5 18.6156827,5.92201317 17.7131782,7.42753468 L2.71310335,32.4278918 C1.78559872,33.9729139 1.7620986,35.8964414 2.64860303,37.4629638 C3.53760746,39.0314862 5.19961575,40 7.00012474,40 L37.0002744,40 C38.8012834,40 40.4632917,39.0314862 41.3517961,37.4629638 C42.2383006,35.8964414 42.2148004,33.9724139 41.2872958,32.4278918 Z M22.0001996,12.4996071 C23.3807065,12.4996071 24.5002121,13.6191231 24.5002121,14.9996429 L24.5002121,24.9997857 C24.5002121,26.3803054 23.3807065,27.4998214 22.0001996,27.4998214 C20.6196927,27.4998214 19.5001871,26.3803054 19.5001871,24.9997857 L19.5001871,14.9996429 C19.5001871,13.6191231 20.6196927,12.4996071 22.0001996,12.4996071 Z M19.5001871,32.4998929 C19.5001871,31.1193731 20.6196927,29.9998571 22.0001996,29.9998571 C23.3807065,29.9998571 24.5002121,31.1193731 24.5002121,32.4998929 C24.5002121,33.8804126 23.3807065,34.9999286 22.0001996,34.9999286 C20.6196927,34.9999286 19.5001871,33.8809126 19.5001871,32.4998929 Z" id="Shape-Copy" fill="#C6462D" fill-rule="nonzero"></path>
    </g>
</svg>