<?xml version="1.0" encoding="UTF-8"?>
<svg width="45px" height="45px" viewBox="0 0 45 45" version="1.1" xmlns="http://www.w3.org/2000/svg" xmlns:xlink="http://www.w3.org/1999/xlink">
    <title>icon_marker</title>
    <g id="icon_marker" stroke="none" stroke-width="1" fill="none" fill-rule="evenodd">
        <path d="M19.9262027,4 L19.9262027,6.83846868 L17.2357032,6.83846868 L17.2357032,9.67693736 L28,9.67693736 L28,6.83846868 L25.3095004,6.83846868 L25.3095004,4 L19.927352,4 L19.9262027,4 Z M17,10.9015777 L17,30.7708584 L27.7642968,30.7708584 L27.7642968,10.9015777 L17,10.9015777 Z M17.0877021,31.7749768 L17.0877021,33.6202178 L19.7782016,35.4654589 L19.7782016,38.2327295 L21.1240261,38.2327295 L21.1240261,41 L23.8145256,40.0779705 L23.8145256,38.2327295 L25.1603501,38.2327295 L25.1603501,35.4654589 L27.8508496,33.6202178 L27.8508496,31.7749768 L17.0865528,31.7749768 L17.0877021,31.7749768 Z" id="Shape-Copy-2" fill="#000000" fill-rule="nonzero" transform="translate(22.500000, 22.500000) scale(1, -1) rotate(145.000000) translate(-22.500000, -22.500000) "></path>
    </g>
</svg>