<?xml version="1.0" encoding="UTF-8"?>
<svg width="45px" height="45px" viewBox="0 0 45 45" version="1.1" xmlns="http://www.w3.org/2000/svg" xmlns:xlink="http://www.w3.org/1999/xlink">
    <title>icon_dr</title>
    <defs>
        <filter color-interpolation-filters="auto" id="filter-1">
            <feColorMatrix in="SourceGraphic" type="matrix" values="0 0 0 0 0.776471 0 0 0 0 0.274510 0 0 0 0 0.176471 0 0 0 1.000000 0"></feColorMatrix>
        </filter>
    </defs>
    <g id="icon_dr" stroke="none" stroke-width="1" fill="none" fill-rule="evenodd">
        <g filter="url(#filter-1)" id="icon">
            <g transform="translate(3.000000, 1.000000)">
                <path d="M32.4605229,27.2371556 C32.3540777,27.2147 32.2486046,27.1912889 32.1416733,27.1726556 C31.7999792,26.8611444 31.5282766,26.4258889 31.3187884,25.9055889 C30.7919088,24.6017333 30.6373445,22.7479556 30.65144,20.9066 C30.6810891,17.5913 31.2730996,14.3065778 31.2730996,14.3065778 C31.2730996,14.3065778 31.2730996,14.3065778 31.2730996,14.3056222 C31.2730996,13.8464778 31.2619204,13.4059667 31.2444226,12.9750111 C31.23859,12.8388444 31.229355,12.7088889 31.2225503,12.5755889 C31.2065106,12.2846222 31.1894988,11.9979556 31.1637381,11.7198889 C31.1506147,11.5732111 31.1360332,11.4313111 31.1219377,11.2879778 C31.0961769,11.0314111 31.0650697,10.7810556 31.03056,10.5369111 C31.0125761,10.3997889 30.9945922,10.2626667 30.973692,10.1288889 C30.93578,9.87901111 30.8930075,9.63438889 30.8482908,9.39645556 C30.8254464,9.28704444 30.8074625,9.17428889 30.7855902,9.06535556 C30.7170569,8.74046667 30.6441492,8.42417778 30.5654089,8.12078889 C30.5605484,8.1098 30.5595763,8.09833333 30.5556879,8.08543333 C30.471115,7.76723333 30.3811955,7.46575556 30.2839852,7.17478889 C30.2528779,7.08783333 30.2232288,7.00517778 30.1926076,6.92108889 C30.1260186,6.72042222 30.0511667,6.52262222 29.9763148,6.33342222 C29.9393749,6.23834444 29.9004907,6.14422222 29.8616066,6.05344444 C29.7906432,5.88192222 29.7123889,5.7147 29.6355928,5.55321111 C29.5947645,5.46434444 29.5539362,5.37595556 29.5111637,5.29091111 C29.4265907,5.12751111 29.3420178,4.96984444 29.2569588,4.81791111 C29.2161305,4.74624444 29.1762743,4.67314444 29.1364181,4.60434444 C29.02171,4.40845556 28.898253,4.21782222 28.7786843,4.0377 C28.7675052,4.02002222 28.756812,4.00043333 28.7427166,3.9818 C28.6061361,3.78304444 28.4656673,3.59432222 28.3251985,3.41706667 C28.2833981,3.36498889 28.2406256,3.31625556 28.1968809,3.26704444 C28.0943241,3.14282222 27.9927394,3.02242222 27.8872663,2.90775556 C27.8323425,2.8509 27.7788768,2.79691111 27.7249251,2.73862222 C27.629173,2.63685556 27.5305046,2.53986667 27.4308641,2.44574444 C27.3759403,2.39271111 27.3215026,2.34111111 27.2665788,2.2919 C27.1620777,2.19873333 27.0585488,2.11177778 26.9530757,2.02482222 C26.9020403,1.98277778 26.8505188,1.93977778 26.8004556,1.9006 C26.6677636,1.79787778 26.5336134,1.69897778 26.3980051,1.60676667 C26.3771049,1.59004444 26.3532884,1.57236667 26.3333603,1.55803333 C26.1768517,1.45053333 26.0174269,1.35163333 25.8584881,1.25846667 C25.8127993,1.23218889 25.7666244,1.2083 25.7219077,1.18297778 C25.6091438,1.11752222 25.4949218,1.05684444 25.3860463,1.0019 C25.326262,0.971322222 25.269394,0.944088889 25.2115539,0.9159 C25.108997,0.867166667 25.0103286,0.820822222 24.909716,0.776866667 C24.8499317,0.751544444 24.7930637,0.727177778 24.7342515,0.703288889 C24.6316947,0.660288889 24.5320541,0.623022222 24.4285252,0.585755556 C24.3765177,0.566166667 24.3211079,0.545622222 24.2720167,0.526988889 C24.1534202,0.484944444 24.0328795,0.446722222 23.9176853,0.412322222 C23.8856059,0.402766667 23.8510963,0.390822222 23.8209611,0.382222222 C23.6736876,0.339222222 23.5312745,0.301955556 23.3908057,0.267555556 C23.3431727,0.256566667 23.3004002,0.247966667 23.2551974,0.238411111 C23.1594453,0.216911111 23.0632071,0.194455556 22.9713434,0.176777778 C22.9173917,0.166744444 22.862954,0.156233333 22.8119186,0.147633333 C22.730262,0.132822222 22.6486054,0.119444444 22.5718093,0.1075 C22.5178576,0.0989 22.465364,0.0917333333 22.4172449,0.086 C22.3414209,0.0759666667 22.2646248,0.0664111111 22.190259,0.0587666667 C22.1401957,0.0539888889 22.0940208,0.0477777778 22.048332,0.043 C21.9705638,0.0363111111 21.8957119,0.0291444444 21.821346,0.0243666667 C21.7824619,0.0224555556 21.7445499,0.0176777778 21.7100403,0.0157666667 C21.6065114,0.00907777778 21.5117314,0.00716666667 21.4184095,0.00286666667 C21.375637,0.00191111111 21.3386971,0.00191111111 21.2959246,0.00191111111 C21.2502358,0.00191111111 21.2011446,0.000955555556 21.1564279,0.000955555556 C20.9284698,0.000955555556 20.7462006,0.00955555556 20.617397,0.0205444444 C20.5994131,0.0205444444 20.5877478,0.0215 20.5736524,0.0234111111 C20.5269914,0.0262777778 20.4900515,0.0301 20.4633187,0.0329666667 C20.4531116,0.0339222222 20.4404743,0.0348777778 20.4336696,0.0367888889 C20.4079089,0.0377444444 20.3928413,0.0406111111 20.3928413,0.0406111111 C20.2601493,0.0320111111 20.1279433,0.0267555556 19.9976816,0.0219777778 C19.8674198,0.0258 19.736672,0.0320111111 19.6025219,0.0387 C19.6025219,0.0387 19.5864822,0.0377444444 19.5616936,0.0348777778 C19.5529446,0.0339222222 19.5407934,0.0329666667 19.5330165,0.0320111111 C19.5072558,0.0291444444 19.4673996,0.0253222222 19.4226829,0.0219777778 C19.4105316,0.0210222222 19.3959501,0.0210222222 19.3789383,0.0200666667 C19.2506207,0.0086 19.0693236,0 18.8413655,0 C18.7956767,0 18.7446413,0 18.6960362,0 C18.65618,0 18.6221564,0 18.5813281,0.000955555556 C18.4884923,0.00382222222 18.3888518,0.0086 18.2862949,0.0138555556 C18.2556737,0.0157666667 18.2216501,0.0186333333 18.1895707,0.0215 C18.1127746,0.0262777778 18.0330622,0.0324888889 17.9484893,0.0420444444 C17.9047447,0.0449111111 17.860028,0.0506444444 17.8172554,0.0559 C17.7385151,0.0645 17.6597748,0.0745333333 17.5771461,0.0850444444 C17.5295131,0.0917333333 17.4823661,0.0989 17.433761,0.105588889 C17.3472438,0.118488889 17.2616988,0.132822222 17.1727514,0.149544444 C17.1260905,0.158144444 17.0789435,0.165311111 17.0313105,0.173911111 C16.9277816,0.194455556 16.8261968,0.217866667 16.7178074,0.240322222 C16.6818396,0.248922222 16.64733,0.257044444 16.6084459,0.264688889 C16.4631165,0.298133333 16.315843,0.336355556 16.1680834,0.381266667 C16.1442669,0.387 16.1204504,0.396077778 16.0961478,0.402766667 C15.9726908,0.440988889 15.8463174,0.481122222 15.719458,0.525077778 C15.6708529,0.5418 15.6217617,0.560433333 15.5721845,0.579066667 C15.4657393,0.618244444 15.3602661,0.659333333 15.2533348,0.703288889 C15.1993831,0.724788889 15.1439733,0.7482 15.0909937,0.772566667 C14.9845485,0.816522222 14.8790753,0.867644444 14.7721441,0.918288889 C14.7191645,0.943611111 14.6647267,0.968455556 14.6117471,0.996644444 C14.4950948,1.05636667 14.3745541,1.12182222 14.2559576,1.18966667 C14.2170735,1.21307778 14.1762452,1.23266667 14.136389,1.25703333 C13.9769641,1.35115556 13.8165672,1.45101111 13.6551982,1.56042222 C13.6401306,1.57045556 13.625549,1.58192222 13.6114535,1.59195556 C13.4690405,1.6899 13.3275996,1.79357778 13.1871308,1.90346667 C13.1394977,1.93977778 13.0923508,1.97991111 13.0447177,2.01717778 C12.9353562,2.10604444 12.8284249,2.19825556 12.7210076,2.29333333 C12.6670559,2.34302222 12.6135902,2.39318889 12.5615827,2.44192222 C12.4580538,2.53795556 12.3584133,2.63876667 12.2578007,2.7434 C12.2067653,2.79643333 12.1552439,2.84994444 12.1051806,2.90393333 C11.9967911,3.02146667 11.8908319,3.14568889 11.7853588,3.2723 C11.7464747,3.32007778 11.7075906,3.36355556 11.6687065,3.41324444 C11.5243493,3.59241111 11.3838804,3.78113333 11.2463279,3.98132222 C11.2361208,3.99613333 11.2273719,4.01285556 11.2176509,4.02623333 C11.0922497,4.21017778 10.972681,4.4032 10.8501961,4.60482222 C10.811312,4.67123333 10.7753442,4.7429 10.735488,4.81217778 C10.6489709,4.96793333 10.5619677,5.12751111 10.4783669,5.29282222 C10.4355944,5.37786667 10.3957381,5.46338889 10.3549098,5.5513 C10.2781137,5.71565556 10.2022897,5.88431111 10.1259797,6.05822222 C10.0890398,6.14947778 10.0491836,6.24025556 10.0132158,6.33342222 C9.93739177,6.52548889 9.86399803,6.7252 9.79400664,6.92968889 C9.76630172,7.01282222 9.73422233,7.09117778 9.70846161,7.17622222 C9.6107653,7.4691 9.51841555,7.77248889 9.43432868,8.08973333 C9.43141237,8.10167778 9.42752396,8.11601111 9.42557976,8.12795556 C9.34683945,8.43038889 9.27198755,8.74572222 9.20637062,9.07061111 C9.18547041,9.17811111 9.16651441,9.28991111 9.1446421,9.39741111 C9.09992539,9.63534444 9.05618077,9.88187778 9.01729666,10.1327111 C8.99639646,10.2650556 8.97938466,10.4021778 8.96042866,10.5388222 C8.92737717,10.7834444 8.89578384,11.0333222 8.87196733,11.2918 C8.85592763,11.4356111 8.8423182,11.5775111 8.82919481,11.7246667 C8.8063504,12.0008222 8.78545019,12.2874889 8.7694105,12.5775 C8.76163368,12.7117556 8.75239871,12.8417111 8.74753819,12.9797889 C8.7295543,13.4097889 8.71788906,13.8512556 8.71788906,14.3094444 C8.71788906,14.3094444 8.71788906,14.3094444 8.71788906,14.3104 C8.71788906,14.3104 9.3094135,17.5960778 9.33954868,20.9104222 C9.35753257,22.7522556 9.20102406,24.6046 8.67317234,25.9113222 C8.46125398,26.4311444 8.19295366,26.8668778 7.85028749,27.1755222 C7.73995385,27.1960667 7.63691097,27.2185222 7.53338205,27.2428889 C6.97150674,27.3709333 5.14006545,27.5228667 3.2891821,29.4621667 C2.16348729,30.6427556 1.03001566,32.4826778 0.171649064,35.3832667 C0.0948529591,35.6446111 0.0423594188,35.9097778 0.0190289564,36.1782889 C-0.0577671489,36.9790444 0.0987413695,37.7898333 0.47300087,38.485 C2.33068894,41.9388556 12.1012922,43 19.9996258,43 C27.8979594,43 37.6709929,41.9388556 39.5281949,38.4845222 C39.8995381,37.7855333 40.0560466,36.9757 39.9821668,36.1768556 C39.9471711,35.9045222 39.8956497,35.6384 39.8198257,35.3770556 C38.9624312,32.4740778 37.8289595,30.6365444 36.7042368,29.4578667 C34.8528674,27.5180889 33.0194819,27.3647222 32.4605229,27.2371556 Z M11.2876423,13.7064889 C11.3372195,13.6720889 11.3911712,13.6486778 11.4480392,13.6391222 C11.5773289,13.6176222 11.7129372,13.6654 11.8446571,13.7705111 C11.8446571,13.7705111 11.8446571,13.7609556 11.8475734,13.7413667 C11.8932622,13.3027667 12.4872169,8.38117778 16.2361306,8.72278889 L27.6962481,14.5215778 L28.6275224,13.6405556 C28.6581436,13.6462889 28.6911951,13.6563222 28.7193861,13.6697 C29.1247529,13.8584222 29.3011895,14.7948667 29.1048248,15.8646111 C28.9565791,16.6849556 28.6309248,17.3614889 28.2863144,17.6505444 C28.1468177,17.7642556 28.0044046,17.8187222 27.8707405,17.7962667 C27.7949165,17.7833667 27.7224949,17.7465778 27.6607664,17.6887667 C26.8957216,20.0255778 25.4356235,22.3537889 23.5920309,23.7541556 C22.5154273,24.5687667 21.3100201,25.0670889 20.0341354,25.0670889 C18.751446,25.0670889 17.538262,24.5620778 16.4572839,23.7374333 C14.6234124,22.3365889 13.1686608,20.0160222 12.4084766,17.6887667 C12.345776,17.7446667 12.2782148,17.7819333 12.2004466,17.7962667 C12.0449102,17.8235 11.8767365,17.7461 11.7182837,17.5889111 C11.3974899,17.2716667 11.1029428,16.6314444 10.962474,15.8646111 C10.7787466,14.8541111 10.925048,13.9621 11.2876423,13.7064889 Z M12.1771162,38.9522667 C12.0123448,39.087 11.8067451,39.1610556 11.5904522,39.1610556 L10.5755771,39.1610556 C10.0661954,39.1610556 9.65207966,38.7535111 9.65207966,38.2532778 L9.65548202,38.1892556 C9.68950561,37.7205556 10.0934142,37.3459778 10.5760632,37.3459778 L11.5904522,37.3459778 C11.6939812,37.3459778 11.7960519,37.3627 11.8937483,37.3966222 C11.9549907,37.3794222 11.9744328,37.3655667 11.9744328,37.3655667 C12.0876827,37.1687222 12.0876827,36.3483778 12.0876827,35.9546889 C12.0876827,35.1620556 11.8854854,34.2031556 11.5306679,33.3106667 C11.3469405,33.2079444 11.1986949,33.0526667 11.1073173,32.8649 C10.4914903,31.5987889 9.65499597,30.7803556 8.97452415,30.7803556 C8.27898474,30.7803556 7.40069004,31.6652 6.7882654,32.9805222 C6.68813884,33.1950444 6.51267432,33.3694333 6.29638149,33.4731111 C5.97655973,34.3259444 5.80060916,35.2031444 5.80060916,35.9542111 C5.80060916,36.2853111 5.80060916,37.1629889 5.92941276,37.3689111 C5.93087091,37.3689111 5.95954794,37.3861111 6.0397464,37.4052222 C6.14473348,37.3660444 6.25749739,37.3455 6.37074734,37.3455 L7.38756666,37.3455 C7.85709221,37.3455 8.24933561,37.6938 8.30328731,38.1472111 L8.30863387,38.1572444 L8.31057807,38.2169667 C8.31057807,38.7530333 7.89646237,39.1605778 7.38805271,39.1605778 L6.37123339,39.1605778 C6.1695221,39.1605778 5.97461553,39.0941667 5.8142186,38.9732889 C5.23387335,38.8662667 4.8241321,38.6144778 4.56458071,38.2045444 C4.25107762,37.7086111 4.19372357,37.0578778 4.19372357,35.9542111 C4.19372357,34.9857556 4.42119558,33.8715778 4.83433918,32.8066111 C4.77358277,32.5787111 4.79399692,32.3403 4.89460954,32.1262556 C5.32525099,31.2012778 5.87254476,30.4091222 6.47719257,29.8362667 C6.80965166,29.5209333 7.16641332,29.2681889 7.54067282,29.0832889 C7.67725323,28.7689111 7.90958575,28.5051778 8.19635602,28.3365222 C8.34703192,27.5023222 8.82239009,26.6189111 9.51549925,25.8955556 C10.470104,24.8979556 11.6691926,24.3494667 12.8916116,24.3494667 L13.1346372,24.3494667 L13.1346372,24.3542444 C13.5575019,24.3776556 13.8948215,24.7192667 13.8948215,25.1406667 C13.8948215,25.5620667 13.5575019,25.9041556 13.1346372,25.9270889 L13.1346372,25.9299556 L13.104016,25.9299556 C13.0986694,25.9299556 13.094295,25.9318667 13.0899205,25.9318667 C13.085546,25.9318667 13.0801995,25.9299556 13.075825,25.9299556 L12.8916116,25.9299556 C11.3863107,25.9299556 10.1391031,27.3327111 9.82414182,28.4206111 C10.0399486,28.5782778 10.2154131,28.7918444 10.3306073,29.0412444 C11.3688129,29.5223667 12.2859917,30.5362111 12.9883358,31.9795778 C13.1059602,32.2227667 13.1210278,32.4970111 13.0349967,32.7473667 C13.4559171,33.8128111 13.6965125,34.9762 13.6965125,35.9537333 C13.6960265,37.3244778 13.6960265,38.6197333 12.1771162,38.9522667 Z M19.9937932,34.3335889 C19.9937932,34.3335889 13.9599523,28.7244778 12.9727821,27.4841667 C12.7647522,27.219 12.6340044,26.9409333 12.5985226,26.6509222 L12.5985226,26.6499667 C12.6471278,26.6322889 12.7589196,26.5940667 12.9091094,26.5267 C12.9698658,26.5013778 13.0383991,26.4679333 13.1054741,26.4306667 C13.7028312,26.1234556 14.5796677,25.4818 14.5796677,24.3513778 C14.5796677,24.3513778 14.5796677,24.3513778 14.5806398,24.3513778 C15.5216352,25.2668 16.5705339,25.9954111 17.6889379,26.4306667 C18.4408593,26.7245 19.2258321,26.8869444 20.0317052,26.8869444 C20.8385503,26.8869444 21.6225511,26.7245 22.3744724,26.4306667 C23.4831554,25.9997111 24.5189308,25.2830444 25.4570098,24.3767 C25.4638145,24.3805222 25.4701332,24.3833889 25.4769379,24.3867333 C25.4988102,25.8415667 26.9861272,26.4798778 27.3880916,26.6270333 C27.3890637,26.6318111 27.3880916,26.6399333 27.3861474,26.6504444 C27.3521238,26.9390222 27.2199178,27.2185222 27.0114018,27.4836889 C26.0256898,28.7225667 19.9937932,34.3335889 19.9937932,34.3335889 Z M30.205731,38.6402778 C30.205731,38.8051111 30.0535969,38.9388889 29.8659811,38.9388889 L28.0185001,38.9388889 L28.0185001,40.7539667 C28.0185001,40.9388667 27.8824058,41.0888889 27.7152041,41.0888889 L25.8920257,41.0888889 C25.724338,41.0888889 25.5887297,40.9388667 25.5887297,40.7539667 L25.5887297,38.9388889 L23.7412487,38.9388889 C23.5536329,38.9388889 23.4010128,38.8051111 23.4010128,38.6402778 L23.4010128,36.8486111 C23.4010128,36.6833 23.5536329,36.55 23.7412487,36.55 L25.5887297,36.55 L25.5887297,34.7339667 C25.5887297,34.5490667 25.724338,34.4 25.8920257,34.4 L27.7152041,34.4 C27.8824058,34.4 28.0185001,34.5495444 28.0185001,34.7339667 L28.0185001,36.55 L29.8659811,36.55 C30.054083,36.55 30.205731,36.6833 30.205731,36.8486111 L30.205731,38.6402778 Z M32.4488577,32.2490444 C31.977874,33.1133444 31.0655557,33.6503667 30.0686645,33.6503667 C30.0686645,33.6503667 30.0686645,33.6503667 30.0681784,33.6503667 C29.628302,33.6503667 29.1884256,33.5414333 28.7981264,33.3364667 C28.1628574,33.0025 27.6981923,32.4454111 27.4896763,31.7679222 C27.2806742,31.0899556 27.3530959,30.3728111 27.6928457,29.7488333 C28.0296793,29.1296333 28.605164,28.6733556 29.2938987,28.4712556 C29.0547615,27.5496222 28.4122017,26.4459556 27.2831045,26.0814111 L27.0123739,25.9939778 C26.9900156,25.9863333 26.9666851,25.9815556 26.9452988,25.9724778 L26.8587817,25.9442889 L26.8641283,25.9285222 C26.6215887,25.7909222 26.4558452,25.5357889 26.4558452,25.241 C26.4558452,24.8014444 26.8184395,24.4450222 27.2656067,24.4450222 C27.2967139,24.4450222 27.3263631,24.4507556 27.3569843,24.4545778 L27.3613588,24.4426333 L27.4182268,24.4607889 C27.4838437,24.4727333 27.5455722,24.4937556 27.6038984,24.5205111 L27.7856815,24.5788 C28.9478302,24.9548111 29.912156,25.8439556 30.5022223,27.0842667 C30.7194872,27.5391111 30.8701631,28.0135444 30.9508476,28.4951444 C31.0908304,28.5419667 31.2206061,28.5969111 31.3435771,28.6614111 C32.6534853,29.3508444 33.1497437,30.96 32.4488577,32.2490444 Z" id="Shape" fill="#000000" fill-rule="nonzero"></path>
                <ellipse id="Oval" fill="#000000" fill-rule="nonzero" cx="30.0701227" cy="30.9987" rx="1.4581539" ry="1.43333333"></ellipse>
            </g>
        </g>
    </g>
</svg>