<?xml version="1.0" encoding="UTF-8"?>
<svg width="45px" height="45px" viewBox="0 0 45 45" version="1.1" xmlns="http://www.w3.org/2000/svg" xmlns:xlink="http://www.w3.org/1999/xlink">
    <title>icon_timer</title>
    <g id="icon_timer" stroke="none" stroke-width="1" fill="none" fill-rule="evenodd">
        <path d="M24.1947003,22.0767078 C30.2068016,21.2500291 34.9419964,14.1957041 34.9419964,5.65335742 L34.9419964,4 L11,4 L11,5.65335742 L11,5.65335742 C11,14.1957041 15.7351948,21.2500291 21.7472962,22.0767078 C22.0133184,22.1318197 22.1729317,22.2971555 22.1729317,22.572715 C22.1729317,22.7380508 22.0665228,22.9033865 21.9601139,23.0136104 C21.9601139,23.0136104 21.9069095,23.0687223 21.853705,23.0687223 C21.8005006,23.0687223 21.7472962,23.1238342 21.7472962,23.1238342 C15.7351948,23.9505129 11,31.0048379 11,39.5471846 L11,41.200542 L34.9419964,41.200542 L34.9419964,39.5471846 L34.9419964,39.5471846 C34.9419964,31.0048379 30.260006,23.9505129 24.1947003,23.1238342 C24.1414958,23.1238342 24.0882914,23.1238342 24.0882914,23.0687223 C24.0350869,23.0687223 24.0350869,23.0136104 23.9818825,23.0136104 C23.8754736,22.9033865 23.7690648,22.7931627 23.7690648,22.627827 L23.7690648,22.627827 C23.7690648,22.2971555 23.9818825,22.0767078 24.1947003,22.0767078 Z M22.4389538,28.0839065 C22.4389538,28.5248018 22.2261361,28.8003613 21.853705,28.8003613 C18.8210522,28.9656971 16.1608303,29.8474877 14.4582884,31.0599498 C14.5646972,30.8395022 14.6711061,30.6190545 14.777515,30.3986068 C14.777515,30.3986068 14.777515,30.3434949 14.8307194,30.3434949 C14.9371283,30.1230473 15.0435372,29.9577115 15.149946,29.7372639 C15.149946,29.7372639 15.149946,29.682152 15.2031505,29.682152 C15.7351948,28.8554733 16.3204437,28.0839065 16.9056925,27.4225635 C16.9056925,27.4225635 16.9056925,27.4225635 16.9588969,27.3674516 C17.1185102,27.2021158 17.2781235,27.091892 17.3845324,26.9265563 C17.3845324,26.9265563 17.4377368,26.9265563 17.4377368,26.8714443 C17.5973501,26.7061086 17.7569634,26.5958848 17.9165767,26.430549 C17.9165767,26.430549 17.9165767,26.430549 17.9165767,26.430549 C18.4486211,25.9896537 18.9806655,25.6589822 19.5659143,25.3834227 C19.5659143,25.3834227 19.5659143,25.3834227 19.5659143,25.3834227 C19.7255276,25.2731988 19.9383453,25.2180869 20.0979586,25.162975 C20.0979586,25.162975 20.1511631,25.162975 20.1511631,25.162975 C20.3107764,25.1078631 20.5235941,24.9976393 20.6832074,24.9425274 C20.6832074,24.9425274 20.6832074,24.9425274 20.6832074,24.9425274 C21.2684562,24.7771916 21.9069095,24.6118559 22.5453627,24.6118559 L22.4389538,28.0839065 Z M25.2055845,24.9976393 C25.2055845,24.9976393 25.2055845,24.9976393 25.2055845,24.9976393 C25.4184023,25.0527512 25.5780156,25.1078631 25.7908333,25.2180869 C25.7908333,25.2180869 25.8440378,25.2180869 25.8440378,25.2180869 C26.0036511,25.2731988 26.2164688,25.3834227 26.3760822,25.4385346 C26.3760822,25.4385346 26.3760822,25.4385346 26.3760822,25.4385346 C26.961331,25.7140941 27.4933753,26.0998775 28.0254197,26.4856609 C28.0254197,26.4856609 28.0254197,26.4856609 28.0254197,26.4856609 C28.185033,26.5958848 28.3446463,26.7612205 28.5042596,26.9265563 C28.5042596,26.9265563 28.557464,26.9265563 28.557464,26.9816682 C28.7170774,27.1470039 28.8766907,27.2572277 28.9830995,27.4225635 C28.9830995,27.4225635 28.9830995,27.4225635 29.036304,27.4776754 C29.6747572,28.1390184 30.260006,28.9105852 30.7388459,29.7372639 C30.7388459,29.7372639 30.7388459,29.7923758 30.7920504,29.7923758 C30.8984593,29.9577115 31.0048681,30.1781592 31.111277,30.3986068 C31.111277,30.3986068 31.111277,30.4537188 31.1644814,30.4537188 C31.2708903,30.6741664 31.3772992,30.8946141 31.4837081,31.1150617 C31.4837081,31.1150617 31.4837081,31.1150617 31.4837081,31.1150617 C29.7811661,29.9025996 27.1209443,29.020809 24.0882914,28.8554733 C23.6626559,28.8554733 23.5030426,28.5799137 23.5030426,28.1390184 L23.3966337,24.7220797 C23.9818825,24.6669678 24.6203357,24.7771916 25.2055845,24.9976393 Z M21.1620474,20.0926789 C20.7364119,20.0926789 20.257572,19.9824551 19.8851409,19.8171193 C15.6819904,17.9433143 12.5961331,12.2667871 12.5961331,5.59824551 L33.3458633,5.59824551 C33.3458633,12.321899 30.260006,17.9984262 25.9504467,19.8171193 C25.5780156,19.9824551 25.2055845,20.037567 24.8331535,20.037567 L21.1620474,20.0926789 Z" id="Shape-Copy-3" fill="#C6462D" fill-rule="nonzero"></path>
    </g>
</svg>