<?xml version="1.0" encoding="UTF-8"?>
<svg width="45px" height="45px" viewBox="0 0 45 45" version="1.1" xmlns="http://www.w3.org/2000/svg" xmlns:xlink="http://www.w3.org/1999/xlink">
    <title>icon_stop</title>
    <g id="icon_stop" stroke="none" stroke-width="1" fill="none" fill-rule="evenodd">
        <path d="M8.71428571,8.71428571 C1.04878049,16.6585366 1.04878049,29.3414634 8.71428571,37.2857143 C16.6585366,44.9512195 29.3414634,44.9512195 37.2857143,37.2857143 C44.9512195,29.3414634 44.9512195,16.6585366 37.2857143,8.71428571 C29.3414634,1.04878049 16.6585366,1.04878049 8.71428571,8.71428571 Z M12.5238095,33.4761905 C6.77450875,28.2246163 6.29095381,19.5206273 10.6190476,13.4761905 L32.5238095,35.3809524 C26.4793727,39.7090462 17.7753837,39.2254912 12.5238095,33.4761905 Z M35.3809524,32.5238095 L13.4761905,10.6190476 C19.5122054,6.29095381 28.2040668,6.77450875 33.4761905,12.5238095 C39.1896139,17.7753837 39.7328553,26.4793727 35.3809524,32.5238095 Z" id="Shape-Copy-4" fill="#C6462D" fill-rule="nonzero"></path>
    </g>
</svg>