<?xml version="1.0" encoding="UTF-8"?>
<svg width="60px" height="60px" viewBox="0 0 60 60" version="1.1" xmlns="http://www.w3.org/2000/svg" xmlns:xlink="http://www.w3.org/1999/xlink">
    <title>letsgo-pg7_icon_like</title>
    <g id="letsgo-pg7_icon_like" stroke="none" stroke-width="1" fill="none" fill-rule="evenodd" stroke-linejoin="round">
        <path d="M36.5625,15 C41.2224026,15 45,18.7775974 45,23.4375 C45,25.1724374 44.4763638,26.7850731 43.5785131,28.1259854 L43.59375,28.125 L43.5013049,28.239295 C43.2721475,28.5698131 43.019982,28.8831702 42.7471257,29.1770493 L30,45 L17.2538118,29.1780589 C16.9805956,28.8838879 16.728115,28.5701916 16.4986951,28.239295 L16.40625,28.125 L16.4214869,28.1259854 C15.5236362,26.7850731 15,25.1724374 15,23.4375 C15,18.7775974 18.7775974,15 23.4375,15 C26.0882633,15 28.4535259,16.2223734 30.0003524,18.1341845 C31.5464741,16.2223734 33.9117367,15 36.5625,15 Z" id="Icon-Likes-Copy" stroke="#111111" stroke-width="3.74"></path>
    </g>
</svg>