<?xml version="1.0" encoding="UTF-8"?>
<svg width="60px" height="60px" viewBox="0 0 60 60" version="1.1" xmlns="http://www.w3.org/2000/svg" xmlns:xlink="http://www.w3.org/1999/xlink">
    <title>letsgo-pg7_icon_comment</title>
    <g id="letsgo-pg7_icon_comment" stroke="none" stroke-width="1" fill="none" fill-rule="evenodd" stroke-linejoin="round">
        <path d="M43.13,15.13 C44.1627725,15.13 45.0977725,15.5486138 45.7745794,16.2254206 C46.4513862,16.9022275 46.87,17.8372275 46.87,18.87 L46.87,18.87 L46.87,33.7014286 C46.87,34.7342011 46.4513862,35.6692011 45.7745794,36.3460079 C45.0977725,37.0228148 44.1627725,37.4414286 43.13,37.4414286 L43.13,37.4414286 L39.3754339,37.4414286 L39.3656222,47.4798706 L29.2306567,37.4414286 L16.87,37.4414286 C15.8372275,37.4414286 14.9022275,37.0228148 14.2254206,36.3460079 C13.5486138,35.6692011 13.13,34.7342011 13.13,33.7014286 L13.13,33.7014286 L13.13,18.87 C13.13,17.8372275 13.5486138,16.9022275 14.2254206,16.2254206 C14.9022275,15.5486138 15.8372275,15.13 16.87,15.13 L16.87,15.13 L43.13,15.13 Z" id="Icon-Comments-Copy" stroke="#111111" stroke-width="3.74"></path>
    </g>
</svg>