<?xml version="1.0" encoding="UTF-8"?>
<svg width="59px" height="293px" viewBox="0 0 59 293" version="1.1" xmlns="http://www.w3.org/2000/svg" xmlns:xlink="http://www.w3.org/1999/xlink">
    <title>letsgo-pg7_pin</title>
    <g id="Let'sGo---Case-Study" stroke="none" stroke-width="1" fill="none" fill-rule="evenodd">
        <g id="letsgo-pg7_pin">
            <path d="M25.3074798,59.5728115 C11.0007734,57.5071742 0,45.0254827 0,29.936413 C0,13.4029889 13.2076001,0 29.5,0 C45.7923999,0 59,13.4029889 59,29.936413 C59,44.9970936 48.0405827,57.4601971 33.7732377,59.5610418 C33.0591725,59.6661866 33.7041988,59.5709712 33.7041988,59.5709712 M51.1721232,19.6810332 C45.5908015,7.53478176 31.363306,2.27978957 19.3941231,7.9436798 C18.3394138,8.44277455 17.883101,9.71503019 18.37492,10.7853425 C18.8667389,11.8556548 20.120448,12.3187181 21.1751569,11.8196233 C31.0349217,7.15392259 42.7549994,11.4827882 47.3526831,21.488415 C47.8445021,22.5587273 49.0982112,23.0217906 50.1529205,22.5226958 C51.2076294,22.0236011 51.6639421,20.7513455 51.1721232,19.6810332 Z" id="Shape" fill="#FF473D" fill-rule="nonzero"></path>
            <path d="M27,60 L33,60 L33,290 C33,291.656854 31.6568542,293 30,293 C28.3431458,293 27,291.656854 27,290 L27,60 L27,60 Z" id="Rectangle" fill="#111111"></path>
        </g>
    </g>
</svg>