<?xml version="1.0" encoding="UTF-8"?>
<svg width="60px" height="60px" viewBox="0 0 60 60" version="1.1" xmlns="http://www.w3.org/2000/svg" xmlns:xlink="http://www.w3.org/1999/xlink">
    <title>letsgo-pg7_icon_hamburger</title>
    <g id="letsgo-pg7_icon_hamburger" stroke="none" stroke-width="1" fill="none" fill-rule="evenodd">
        <path d="M45.1428571,40.2207143 C45.3974999,40.2207143 45.6280356,40.3239286 45.7949106,40.4908037 C45.9617856,40.6576787 46.065,40.8882144 46.065,41.1428571 C46.065,41.3974999 45.9617856,41.6280356 45.7949106,41.7949106 C45.6280356,41.9617856 45.3974999,42.065 45.1428571,42.065 L45.1428571,42.065 L14.8571429,42.065 C14.6025001,42.065 14.3719644,41.9617856 14.2050894,41.7949106 C14.0382144,41.6280356 13.935,41.3974999 13.935,41.1428571 C13.935,40.8882144 14.0382144,40.6576787 14.2050894,40.4908037 C14.3719644,40.3239286 14.6025001,40.2207143 14.8571429,40.2207143 L14.8571429,40.2207143 Z M39.4761905,29.0778571 C39.7308332,29.0778571 39.9613689,29.1810715 40.1282439,29.3479465 C40.295119,29.5148216 40.3983333,29.7453573 40.3983333,30 C40.3983333,30.2546427 40.295119,30.4851784 40.1282439,30.6520535 C39.9613689,30.8189285 39.7308332,30.9221429 39.4761905,30.9221429 L39.4761905,30.9221429 L20.5238095,30.9221429 C20.2691668,30.9221429 20.0386311,30.8189285 19.8717561,30.6520535 C19.704881,30.4851784 19.6016667,30.2546427 19.6016667,30 C19.6016667,29.7453573 19.704881,29.5148216 19.8717561,29.3479465 C20.0386311,29.1810715 20.2691668,29.0778571 20.5238095,29.0778571 L20.5238095,29.0778571 Z M45.1428571,17.935 C45.3974999,17.935 45.6280356,18.0382144 45.7949106,18.2050894 C45.9617856,18.3719644 46.065,18.6025001 46.065,18.8571429 C46.065,19.1117856 45.9617856,19.3423213 45.7949106,19.5091963 C45.6280356,19.6760714 45.3974999,19.7792857 45.1428571,19.7792857 L45.1428571,19.7792857 L14.8571429,19.7792857 C14.6025001,19.7792857 14.3719644,19.6760714 14.2050894,19.5091963 C14.0382144,19.3423213 13.935,19.1117856 13.935,18.8571429 C13.935,18.6025001 14.0382144,18.3719644 14.2050894,18.2050894 C14.3719644,18.0382144 14.6025001,17.935 14.8571429,17.935 L14.8571429,17.935 Z" id="Icon-Hamburger-Copy" stroke="#111111" stroke-width="1.87" fill="#111111"></path>
    </g>
</svg>