<?xml version="1.0" encoding="UTF-8"?>
<svg width="60px" height="60px" viewBox="0 0 60 60" version="1.1" xmlns="http://www.w3.org/2000/svg" xmlns:xlink="http://www.w3.org/1999/xlink">
    <title>letsgo-pg7_icon_close</title>
    <g id="letsgo-pg7_icon_close" stroke="none" stroke-width="1" fill="none" fill-rule="evenodd">
        <path d="M30.2132034,15 C30.8049371,15 31.284632,15.4796949 31.284632,16.0714286 L31.2842034,28.928 L44.1417749,28.9285714 C44.7335085,28.9285714 45.2132034,29.4082663 45.2132034,30 C45.2132034,30.5917337 44.7335085,31.0714286 44.1417749,31.0714286 L31.2842034,31.071 L31.284632,43.9285714 C31.284632,44.5203051 30.8049371,45 30.2132034,45 C29.6214698,45 29.1417749,44.5203051 29.1417749,43.9285714 L29.1412034,31.071 L16.284632,31.0714286 C15.6928983,31.0714286 15.2132034,30.5917337 15.2132034,30 C15.2132034,29.4082663 15.6928983,28.9285714 16.284632,28.9285714 L29.1412034,28.928 L29.1417749,16.0714286 C29.1417749,15.4796949 29.6214698,15 30.2132034,15 Z" id="Icon-X-Copy" stroke="#111111" stroke-width="1.87" fill="#111111" transform="translate(30.213203, 30.000000) rotate(45.000000) translate(-30.213203, -30.000000) "></path>
    </g>
</svg>