<?xml version="1.0" encoding="UTF-8"?>
<svg width="600px" height="607px" viewBox="0 0 600 607" version="1.1" xmlns="http://www.w3.org/2000/svg" xmlns:xlink="http://www.w3.org/1999/xlink">
    <title>toss_it_pg19-logo</title>
    <defs>
        <path d="M543.640354,549.602218 C528.87449,553.589612 509.059479,557.160192 484.739658,560.21621 C434.264456,566.558784 368.788293,570.051903 300.373425,570.051903 C231.958557,570.051903 166.482394,566.558784 116.007192,560.21621 C91.6880945,557.160192 71.8712743,553.589612 57.107038,549.602218 C40.9206492,545.231209 35.6852327,541.63112 34.2057528,540.319817 L34.2057528,331.920415 C36.8880221,333.062042 39.8853207,334.172315 43.2251367,335.262301 C57.6584296,339.976352 78.1067549,344.181373 104.002807,347.75933 C156.525157,355.016682 226.263798,359.013297 300.373425,359.013297 C374.483052,359.013297 444.221693,355.016682 496.744043,347.75933 C522.63901,344.181373 543.088782,339.976352 557.521894,335.262301 C560.862072,334.172315 563.858647,333.062042 566.540555,331.920415 L566.540555,540.319817 C565.061256,541.63112 559.825839,545.231209 543.640354,549.602218 Z M57.46224,304.088231 C72.2049021,300.153774 91.9927649,296.628777 116.276326,293.613331 C166.677771,287.356779 232.058257,283.910035 300.373154,283.910035 C368.68805,283.910035 434.068536,287.356779 484.469981,293.613331 C508.754265,296.628777 528.542128,300.153774 543.284609,304.088231 C555.130601,307.249264 561.102353,310.002656 564.029541,311.755145 C561.102353,313.509455 555.130601,316.262847 543.284609,319.423879 C528.542128,323.358337 508.754265,326.881514 484.469981,329.89696 C434.068536,336.155331 368.68805,339.602076 300.373154,339.602076 C232.058257,339.602076 166.677771,336.155331 116.276326,329.89696 C91.9927649,326.881514 72.2049021,323.358337 57.46224,319.423879 C45.6157063,316.262847 39.6432316,313.509455 36.716766,311.755145 C39.6432316,310.002656 45.6157063,307.249264 57.46224,304.088231 Z M584.117647,312.658829 C584.117647,308.462255 582.394038,302.292666 574.185686,296.747588 C569.76747,293.761352 563.737544,291.040395 555.752991,288.429972 C541.348669,283.719419 520.939689,279.521003 495.096376,275.947099 C442.678795,268.69797 373.079264,264.705882 299.117467,264.705882 C225.155669,264.705882 155.556138,268.69797 103.138557,275.947099 C77.294161,279.521003 56.8866248,283.719419 42.4821226,288.429972 C34.4973889,291.040395 28.467824,293.761352 24.0483449,296.747588 C15.8408956,302.292666 14.1176471,308.462255 14.1176471,312.658829 L14.1176471,312.658829 L14.1176471,543.223524 C14.1176471,547.42194 15.8407151,553.589687 24.0483449,559.136607 C28.4676435,562.122843 34.4973889,564.8438 42.4821226,567.454223 C56.8864443,572.162934 77.294161,576.363192 103.138557,579.937096 C155.556138,587.186225 225.155669,591.176471 299.117467,591.176471 C373.079264,591.176471 442.678795,587.186225 495.096376,579.937096 C520.939689,576.363192 541.348669,572.162934 555.752991,567.454223 C563.737544,564.8438 569.76747,562.122843 574.185686,559.136607 C582.394038,553.589687 584.117647,547.42194 584.117647,543.223524 L584.117647,312.673567 C584.117647,312.66804 584.117647,312.664356 584.117647,312.658829 L584.117647,312.658829 Z" id="path-1"></path>
        <filter x="-1.2%" y="-0.9%" width="102.5%" height="104.6%" filterUnits="objectBoundingBox" id="filter-2">
            <feGaussianBlur stdDeviation="0" in="SourceGraphic"></feGaussianBlur>
        </filter>
        <filter x="-2.3%" y="-2.8%" width="104.6%" height="108.3%" filterUnits="objectBoundingBox" id="filter-3">
            <feOffset dx="4" dy="12" in="SourceAlpha" result="shadowOffsetOuter1"></feOffset>
            <feColorMatrix values="0 0 0 0 0.521568627   0 0 0 0 0.733333333   0 0 0 0 0.705882353  0 0 0 1 0" type="matrix" in="shadowOffsetOuter1" result="shadowMatrixOuter1"></feColorMatrix>
            <feOffset dx="0" dy="4" in="SourceAlpha" result="shadowOffsetOuter2"></feOffset>
            <feGaussianBlur stdDeviation="3.5" in="shadowOffsetOuter2" result="shadowBlurOuter2"></feGaussianBlur>
            <feColorMatrix values="0 0 0 0 1   0 0 0 0 1   0 0 0 0 1  0 0 0 1 0" type="matrix" in="shadowBlurOuter2" result="shadowMatrixOuter2"></feColorMatrix>
            <feMerge>
                <feMergeNode in="shadowMatrixOuter1"></feMergeNode>
                <feMergeNode in="shadowMatrixOuter2"></feMergeNode>
            </feMerge>
        </filter>
        <filter x="-4.6%" y="-6.9%" width="109.3%" height="116.5%" filterUnits="objectBoundingBox" id="filter-4">
            <feGaussianBlur stdDeviation="19.5" in="SourceAlpha" result="shadowBlurInner1"></feGaussianBlur>
            <feOffset dx="0" dy="0" in="shadowBlurInner1" result="shadowOffsetInner1"></feOffset>
            <feComposite in="shadowOffsetInner1" in2="SourceAlpha" operator="arithmetic" k2="-1" k3="1" result="shadowInnerInner1"></feComposite>
            <feColorMatrix values="0 0 0 0 0.521568627   0 0 0 0 0.733333333   0 0 0 0 0.705882353  0 0 0 1 0" type="matrix" in="shadowInnerInner1"></feColorMatrix>
        </filter>
        <path d="M525.518534,78.5229285 C512.645551,86.8759802 494.826861,96.4110606 472.55758,106.863509 C426.334176,128.55965 364.936321,152.245856 299.675484,173.559243 C234.414646,194.87263 170.898498,211.982478 120.824625,221.736588 C96.7000236,226.436594 76.7131666,229.247471 61.4191994,230.094385 C44.6511323,231.02161 38.565211,229.263899 36.7565006,228.489995 L30.4928458,209.065736 C33.2410046,209.290241 36.2463329,209.405232 39.5412943,209.405232 C39.7300908,209.405232 39.9205195,209.403407 40.111311,209.403407 C55.3100639,209.344999 76.0920062,206.932025 101.879685,202.233844 C154.182482,192.700589 221.920707,174.736526 292.611484,151.649001 C363.304075,128.561476 428.61388,103.074118 476.513057,79.8807283 C500.128035,68.4452027 518.358413,58.1168707 530.694569,49.1824784 C533.549186,47.1152058 536.071914,45.1362751 538.282701,43.2270687 L544.5469,62.650597 C543.533093,64.3458847 539.632025,69.3653087 525.518534,78.5229285 Z M45.4401525,174.986604 C58.3196255,166.625759 76.1469774,157.080948 98.4274022,146.617102 C144.672443,124.9001 206.097706,101.189541 271.389604,79.8542211 C336.681502,58.5187189 400.229695,41.3912285 450.327219,31.6267995 C474.463303,26.9225452 494.458765,24.1077031 509.760193,23.260656 C522.058673,22.5800583 528.612539,23.3436067 531.947536,24.1049624 C529.690335,26.6939741 524.829369,31.1877455 514.47963,37.9067514 C501.60052,46.2683271 483.77335,55.8131378 461.493469,66.2764355 C415.248065,87.9938032 353.822803,111.703997 288.530905,133.039865 C223.239006,154.375002 159.690814,171.502309 109.593652,181.266373 C85.4575687,185.971175 65.461199,188.786748 50.1601341,189.632699 C37.8625618,190.31421 31.309058,189.550479 27.972973,188.788575 C30.2299926,186.199564 35.0909584,181.706706 45.4401525,174.986604 Z M563.976572,59.5608708 L550.90766,19.2225964 C550.90766,19.219326 550.905846,19.2156923 550.905846,19.212422 C549.628884,15.2745788 546.108168,10.0236973 536.576297,7.3709129 C531.443054,5.94268621 524.855089,5.26391061 516.426049,5.29514795 C501.225844,5.3543898 480.440743,7.75572198 454.649369,12.4335687 C402.339259,21.9215288 334.593142,39.8029779 263.890422,62.7843282 C193.187702,85.7654968 127.868539,111.13637 79.9632244,134.222552 C56.3439559,145.606942 38.1118721,155.886686 25.7734049,164.780172 C18.9338568,169.709289 13.9966923,174.135139 10.6798552,178.310263 C4.51941887,186.062766 4.74705917,192.385408 6.0227518,196.322525 L19.0947468,236.671155 C20.3704394,240.610089 23.8920621,245.860789 33.4237516,248.513391 C38.4396379,249.908733 44.848574,250.588235 53.0028129,250.588235 C53.1916365,250.588235 53.3820925,250.588235 53.5729113,250.588235 C68.773842,250.530096 89.558762,248.128219 115.350136,243.449827 C167.661152,233.96223 235.407269,216.080781 306.10999,193.099431 C376.810896,170.118081 442.131873,144.747571 490.036099,121.660843 C513.656274,110.278089 531.887451,99.9972553 544.227188,91.1037688 C551.065467,86.1741066 556.002812,81.7482572 559.320375,77.5736783 C565.480267,69.8204476 565.253534,63.498714 563.976572,59.5608708 L563.976572,59.5608708 Z" id="path-5"></path>
        <filter x="-1.3%" y="-1.2%" width="102.5%" height="105.7%" filterUnits="objectBoundingBox" id="filter-6">
            <feGaussianBlur stdDeviation="0" in="SourceGraphic"></feGaussianBlur>
        </filter>
        <filter x="-2.2%" y="-3.5%" width="104.5%" height="110.2%" filterUnits="objectBoundingBox" id="filter-7">
            <feOffset dx="4" dy="7" in="SourceAlpha" result="shadowOffsetOuter1"></feOffset>
            <feColorMatrix values="0 0 0 0 0.521568627   0 0 0 0 0.733333333   0 0 0 0 0.705882353  0 0 0 1 0" type="matrix" in="shadowOffsetOuter1" result="shadowMatrixOuter1"></feColorMatrix>
            <feOffset dx="0" dy="4" in="SourceAlpha" result="shadowOffsetOuter2"></feOffset>
            <feGaussianBlur stdDeviation="3.5" in="shadowOffsetOuter2" result="shadowBlurOuter2"></feGaussianBlur>
            <feColorMatrix values="0 0 0 0 1   0 0 0 0 1   0 0 0 0 1  0 0 0 1 0" type="matrix" in="shadowBlurOuter2" result="shadowMatrixOuter2"></feColorMatrix>
            <feMerge>
                <feMergeNode in="shadowMatrixOuter1"></feMergeNode>
                <feMergeNode in="shadowMatrixOuter2"></feMergeNode>
            </feMerge>
        </filter>
        <filter x="-4.7%" y="-9.2%" width="109.5%" height="121.6%" filterUnits="objectBoundingBox" id="filter-8">
            <feGaussianBlur stdDeviation="19.5" in="SourceAlpha" result="shadowBlurInner1"></feGaussianBlur>
            <feOffset dx="0" dy="0" in="shadowBlurInner1" result="shadowOffsetInner1"></feOffset>
            <feComposite in="shadowOffsetInner1" in2="SourceAlpha" operator="arithmetic" k2="-1" k3="1" result="shadowInnerInner1"></feComposite>
            <feColorMatrix values="0 0 0 0 0.521568627   0 0 0 0 0.733333333   0 0 0 0 0.705882353  0 0 0 1 0" type="matrix" in="shadowInnerInner1"></feColorMatrix>
        </filter>
    </defs>
    <g id="toss_it_pg19-logo" stroke="none" stroke-width="1" fill="none" fill-rule="evenodd">
        <g id="bottom-copy-2" filter="url(#filter-2)">
            <use fill="black" fill-opacity="1" filter="url(#filter-3)" xlink:href="#path-1"></use>
            <use fill="#FFFFFF" fill-rule="evenodd" xlink:href="#path-1"></use>
            <use fill="black" fill-opacity="1" filter="url(#filter-4)" xlink:href="#path-1"></use>
        </g>
        <g id="lid-copy-2" filter="url(#filter-6)">
            <use fill="black" fill-opacity="1" filter="url(#filter-7)" xlink:href="#path-5"></use>
            <use fill="#FFFFFF" fill-rule="evenodd" xlink:href="#path-5"></use>
            <use fill="black" fill-opacity="1" filter="url(#filter-8)" xlink:href="#path-5"></use>
        </g>
    </g>
</svg>