<?xml version="1.0" encoding="UTF-8"?>
<svg width="170px" height="170px" viewBox="0 0 170 170" version="1.1" xmlns="http://www.w3.org/2000/svg" xmlns:xlink="http://www.w3.org/1999/xlink">
    <title>toss_it_pg5-chart</title>
    <defs>
        <filter color-interpolation-filters="auto" id="filter-1">
            <feColorMatrix in="SourceGraphic" type="matrix" values="0 0 0 0 0.313725 0 0 0 0 0.313725 0 0 0 0 0.313725 0 0 0 1.000000 0"></feColorMatrix>
        </filter>
        <filter color-interpolation-filters="auto" id="filter-2">
            <feColorMatrix in="SourceGraphic" type="matrix" values="0 0 0 0 0.196078 0 0 0 0 0.843137 0 0 0 0 0.294118 0 0 0 1.000000 0"></feColorMatrix>
        </filter>
    </defs>
    <g id="toss_it_pg5-chart" stroke="none" stroke-width="1" fill="none" fill-rule="evenodd">
        <g filter="url(#filter-1)" id="noun_growth-chart_2033527-copy">
            <g transform="translate(22.000000, 21.000000)" filter="url(#filter-2)" id="Group">
                <g>
                    <path d="M126,126 C126,127 125.194888,128 123.98722,128 L2.01277955,128 C1.00638978,128 0,127 0,126 L0,2 C0,0.8 1.00638978,0 2.01277955,0 C3.22044728,0 4.02555911,0.8 4.02555911,2 L4.02555911,124 L16.3035144,124 L16.3035144,89.2 C16.3035144,88.2 17.1086262,87.2 18.3162939,87.2 L41.4632588,87.2 C42.6709265,87.2 43.4760383,88.2 43.4760383,89.2 L43.4760383,124 L53.1373802,124 L53.1373802,73.6 C53.1373802,72.6 54.14377,71.6 55.1501597,71.6 L78.2971246,71.6 C79.3035144,71.6 80.3099042,72.6 80.3099042,73.6 L80.3099042,124 L89.971246,124 L89.971246,46 C89.971246,44.8 90.7763578,44 91.9840256,44 L115.13099,44 C116.338658,44 117.14377,44.8 117.14377,46 L117.14377,124 L123.98722,124 C124.99361,124 126,125 126,126 Z" id="Path" fill="#000000" fill-rule="nonzero"></path>
                    <path d="M44,29.2 C44,31 42.1176471,31.8 40,32 L40,26 C42.1176471,26.8 44,27.4 44,29.2 Z" id="Path" fill="#32D74B" fill-rule="nonzero"></path>
                    <path d="M38,16 L38,22 C35.75,21.3793103 34,20.7586207 34,18.8965517 C34,17.0344828 36,16.2068966 38,16 Z" id="Path" fill="#32D74B" fill-rule="nonzero"></path>
                    <path d="M88.1574233,21.8917791 L96.5596807,23.9196344 L14.9377519,74.2104454 C13.9374832,74.818802 13.7374295,76.0355152 14.3375907,77.0494428 C14.9377519,78.0633705 16.1380744,78.266156 17.1383432,77.6577994 L98.9603257,27.5697739 L96.9597882,36.0867661 C96.7597345,37.1006937 97.3598957,38.3174069 98.3601644,38.5201924 C99.3604332,38.722978 100.560756,38.1146214 100.760809,37.1006937 L103.961669,23.7168489 C104.161723,22.7029212 103.561562,21.486208 102.561293,21.2834225 L89.3577458,18.0388541 C88.3574771,17.8360685 87.1571546,18.4444251 86.9571009,19.4583528 C86.5569934,20.4722804 87.1571546,21.6889936 88.1574233,21.8917791 Z" id="Path" fill="#000000" fill-rule="nonzero"></path>
                </g>
            </g>
        </g>
        <path d="M60,21 C46.8,21 36,31.8 36,45 C36,58.2 46.8,69 60,69 C73.2,69 84,58.2 84,45 C84,31.8 73.2,21 60,21 Z M62.6309965,56.5474453 L62.6309965,59 L60.3821318,59 L60.3821318,56.5474453 C57.3154982,56.1386861 54.4533069,54.9124088 52,52.8686131 L54.4533069,50.0072993 C56.293287,51.6423358 58.3377094,52.6642336 60.3821318,52.8686131 L60.3821318,46.3284672 C55.8844026,45.3065693 53.0222112,43.8759124 53.0222112,39.5839416 C53.0222112,35.4963504 56.293287,33.0437956 60.3821318,32.8394161 L60.3821318,31 L62.6309965,31 L62.6309965,32.8394161 C65.0843033,33.0437956 67.5376102,33.8613139 69.5820326,35.2919708 L67.333168,38.3576642 C65.9020723,37.3357664 64.2665344,36.7226277 62.4265542,36.3138686 L62.4265542,42.649635 L62.4265542,42.649635 C66.7198412,43.6715328 69.9909171,45.1021898 69.9909171,49.5985401 C70.1953593,53.8905109 66.9242835,56.3430657 62.6309965,56.5474453 Z" id="Shape-Copy" fill="#32D74B" fill-rule="nonzero"></path>
        <path d="M60,36.3 L60,43 C57.3333333,42.5333333 56,41.4666667 56,39.8 C56,38.1333333 57.3333333,36.9666667 60,36.3 Z" id="Path-4-Copy-2" fill="#34C759"></path>
        <path d="M66,47 L66,53.1 C63.3333333,52.7666667 62,51.7666667 62,50.1 C62,48.4333333 63.3333333,47.4 66,47 Z" id="Path-4-Copy-3" fill="#34C759" transform="translate(64.000000, 50.050000) scale(-1, 1) translate(-64.000000, -50.050000) "></path>
    </g>
</svg>