<?xml version="1.0" encoding="UTF-8"?>
<svg width="170px" height="170px" viewBox="0 0 170 170" version="1.1" xmlns="http://www.w3.org/2000/svg" xmlns:xlink="http://www.w3.org/1999/xlink">
    <title>toss_it_pg5-skincare_icons</title>
    <defs>
        <filter color-interpolation-filters="auto" id="filter-1">
            <feColorMatrix in="SourceGraphic" type="matrix" values="0 0 0 0 0.313908 0 0 0 0 0.313908 0 0 0 0 0.313908 0 0 0 1.000000 0"></feColorMatrix>
        </filter>
    </defs>
    <g id="toss_it_pg5-skincare_icons" stroke="none" stroke-width="1" fill="none" fill-rule="evenodd">
        <g filter="url(#filter-1)" id="noun_organic-cosmetics_3852539-copy">
            <g transform="translate(23.000000, 45.000000)">
                <path d="M120,70 L112,70 C109.790861,70 108,71.790861 108,74 L108,100 C108,101.104569 108.895431,102 110,102 L122,102 C123.104569,102 124,101.104569 124,100 L124,74 C124,71.790861 122.209139,70 120,70 Z" id="Path" fill="#000000" fill-rule="nonzero"></path>
                <path d="M98,57.0012229 C98,56.6546339 97.8205362,56.3327614 97.5257073,56.1505585 C97.2308785,55.9683556 96.862728,55.9518059 96.55274,56.10682 L91.1056,58.83044 C90.4280029,59.1691786 90,59.8617102 90,60.61926 L90,72 L98,72 L98,57.0012229 Z" id="Path" fill="#000000" fill-rule="nonzero"></path>
                <path d="M88,78 L88,94 L100,94 L100,78 C100,76.8954305 99.1045695,76 98,76 L90,76 C88.8954305,76 88,76.8954305 88,78 Z" id="Path" fill="#000000" fill-rule="nonzero"></path>
                <path d="M114,60 C112.895431,60 112,60.8954305 112,62 L112,66 L120,66 L120,62 C120,60.8954305 119.104569,60 118,60 L114,60 Z" id="Path" fill="#000000" fill-rule="nonzero"></path>
                <rect id="Rectangle" fill="#000000" fill-rule="nonzero" x="86" y="98" width="16" height="4"></rect>
                <path d="M78.8160509,68 L67.1837321,68 C66.8526902,68 66.5367786,68.1405444 66.312635,68.3874974 C66.0884914,68.6344505 65.9765964,68.9652621 66.004095,69.29968 L67.8700879,92 L78.1297542,92 L79.995905,69.29968 C80.0234067,68.965224 79.911483,68.6343769 79.6872915,68.3874165 C79.4631,68.1404561 79.1471305,68 78.8160509,68 Z" id="Path" fill="#000000" fill-rule="nonzero"></path>
                <path d="M68.0685886,99.6 C68.0685886,100.925483 69.1725364,102 70.5343251,102 L75.4657982,102 C76.8275634,102 77.931478,100.925461 77.9315347,99.6 L78,96 L68,96 L68.0685886,99.6 Z" id="Path" fill="#000000" fill-rule="nonzero"></path>
                <path d="M58,76 L38,76 C35.790861,76 34,77.790861 34,80 L34,82 L62,82 L62,80 C62,77.790861 60.209139,76 58,76 Z" id="Path" fill="#000000" fill-rule="nonzero"></path>
                <path d="M34,100 C34,101.104569 34.8954305,102 36,102 L60,102 C61.1045695,102 62,101.104569 62,100 L62,86 L34,86 L34,100 Z" id="Path" fill="#000000" fill-rule="nonzero"></path>
                <path d="M19.9845341,52.013539 L8.00900558,52 C5.88571693,51.9976069 3.84857121,52.8390222 2.34633088,54.3388959 C0.844090558,55.8387695 0,57.8740527 0,59.9963931 L0,100.000903 C0,101.104974 0.895426652,102 2,102 L25.9987883,102 C26.5297507,102 27.0389455,101.789072 27.4142782,101.413678 C27.7896109,101.038284 28.0003127,100.529189 28,99.9984641 L27.9754598,60.0049693 C27.9727266,55.5941482 24.3973266,52.0185224 19.9845341,52.013539 Z" id="Path" fill="#000000" fill-rule="nonzero"></path>
                <path d="M6,36 L6,40 L10.01332,40 L10.00818,48 L18.0105,48 L18.01564,40 L22,40 L24,38 L30.00014,38 L30.00014,34 L8,34 C6.8954305,34 6,34.8954305 6,36 Z" id="Path" fill="#000000" fill-rule="nonzero"></path>
                <path d="M57.7464868,16 C57.78767,15.1829104 57.8674831,14.3429692 58,13.4922766 C54.9927962,8.79392405 51.6520817,4.28653967 48,0 C51.5629109,5.16314636 54.8166703,10.5045736 57.7464868,16 L57.7464868,16 Z" id="Path" fill="#34C759" fill-rule="nonzero"></path>
            </g>
        </g>
        <path d="M85,23 C68.4314575,23 55,36.4314575 55,53 C55,69.5685425 68.4314575,83 85,83 C101.568542,83 115,69.5685425 115,53 C115,45.0435053 111.839295,37.4128879 106.213203,31.7867966 C100.587112,26.1607052 92.9564947,23 85,23 Z M101.240218,64.3501951 C96.4651594,70.1275567 87.4607566,70.9189397 83.9193339,71 C85.7629264,68.6404912 87.0908875,66.9299847 87.3491527,66.5612634 C88.8164838,64.428562 90.3377027,62.3302475 91.9128091,60.2663197 C95.0550984,56.1352043 97.9919381,51.5520471 101.489135,47.6941326 C97.6038712,51.1477456 94.2462444,55.3587013 90.6517465,59.1576756 C88.8552699,61.0575894 87.0992307,63.0014433 85.3836288,64.9892375 C85.1035902,65.3099187 83.8293836,66.8768245 82.0610194,69.0657927 C81.7711455,67.1593988 81.6384191,65.2323581 81.6641832,63.3041711 C78.544806,62.6814888 71.7652309,60.7880417 68.7370625,55.6350824 C64.7469269,48.8447569 68.8800682,39 68.8800682,39 C68.8800682,39 79.4825028,40.1643044 83.4727583,46.9544898 C84.3114165,48.4280728 84.8468949,50.0548673 85.0476184,51.7389478 C85.171867,51.5732871 85.2857282,51.4019065 85.4186261,51.2409459 C91.4445999,43.9505186 104.240281,44.594921 104.240281,44.594921 C104.240281,44.594921 107.266192,57.0596477 101.240218,64.3501951 Z" id="Shape-Copy" fill="#34C759" fill-rule="nonzero"></path>
        <path d="M71,45 L81,61.5 L81,58 C79.5825929,55.6240374 78.2492595,53.6240374 77,52 C75.7507405,50.3759626 73.7507405,48.0426293 71,45 Z" id="Path-2-Copy" fill="#32D74B"></path>
    </g>
</svg>