<?xml version="1.0" encoding="UTF-8"?>
<svg width="60px" height="60px" viewBox="0 0 60 60" version="1.1" xmlns="http://www.w3.org/2000/svg" xmlns:xlink="http://www.w3.org/1999/xlink">
    <title>letsgo-pg7_icon_share</title>
    <g id="letsgo-pg7_icon_share" stroke="none" stroke-width="1" fill="none" fill-rule="evenodd">
        <path d="M16.88,24.3416704 C17.9127725,24.3416704 18.75,25.1788979 18.75,26.2116704 L18.749,43.2226704 L41.249,43.2226704 L41.25,26.2116704 C41.25,25.1788979 42.0872275,24.3416704 43.12,24.3416704 L43.13,24.3416704 C44.1627725,24.3416704 45,25.1788979 45,26.2116704 L44.999,43.2226704 L45,43.2236117 L45,45.13 C45,46.1627725 44.1627725,47 43.13,47 L16.87,47 C15.8372275,47 15,46.1627725 15,45.13 L15,26.2116704 C15,25.1788979 15.8372275,24.3416704 16.87,24.3416704 L16.88,24.3416704 Z M31.0889893,13.6894772 C31.2754142,13.9798234 31.6051938,14.4011913 31.875,14.8087486 C32.5255054,15.791373 33.5337584,17.5669129 34.8997589,20.1353682 C35.1422019,20.5912855 34.9691766,21.1574275 34.5132721,21.3998946 C34.3781014,21.4717835 34.2273452,21.5093792 34.0742467,21.5093792 L31.6299425,21.509181 C31.7858866,21.7822126 31.875,22.0983406 31.875,22.4352821 L31.875,35.6890293 C31.875,36.7218018 31.0377725,37.5590293 30.005,37.5590293 L29.995,37.5590293 C28.9622275,37.5590293 28.125,36.7218018 28.125,35.6890293 L28.125,22.4352821 C28.125,22.0983406 28.2141134,21.7822126 28.3700575,21.509181 L25.9132538,21.5093792 C25.396857,21.5093983 24.9782347,21.090776 24.9782347,20.5743792 C24.9782347,20.4230513 25.0149644,20.2739845 25.0852696,20.1399796 C26.3319168,17.7638167 27.3451602,15.9867397 28.125,14.8087486 C28.3565545,14.4589727 28.6865719,13.9514609 28.8806152,13.6894772 C29.2669159,13.1679215 29.6400441,12.9422643 30,13.0125056 C30.3911133,12.9422643 30.7541097,13.1679215 31.0889893,13.6894772 Z" id="Icon-Share-Copy" fill="#111111"></path>
    </g>
</svg>