<?xml version="1.0" encoding="UTF-8"?>
<svg width="60px" height="60px" viewBox="0 0 60 60" version="1.1" xmlns="http://www.w3.org/2000/svg" xmlns:xlink="http://www.w3.org/1999/xlink">
    <title>letsgo-pg7_icon_arrow</title>
    <g id="letsgo-pg7_icon_arrow" stroke="none" stroke-width="1" fill="none" fill-rule="evenodd">
        <path d="M16.2139576,14 C16.8844078,14 17.4279151,14.5435073 17.4279151,15.2139576 L17.4279151,30.5365083 C17.4279151,36.1875608 22.0089983,40.7686439 27.6600508,40.7686439 L37.0525402,40.7686439 C37.4710571,40.7686439 37.8180571,41.0748441 37.8817354,41.4754397 L37.8801379,38.0645888 C37.8801379,37.5482026 38.2987516,37.1295888 38.8151379,37.1295888 C39.0002869,37.1295888 39.1812677,37.1845581 39.3351413,37.2875293 L44.5745848,40.7937322 C45.0037429,41.0809221 45.1188308,41.661637 44.8316409,42.0907951 C44.7635986,42.1924731 44.6762628,42.2798089 44.5745848,42.3478512 L39.3351413,45.8540541 C38.9059831,46.141244 38.3252683,46.0261561 38.0380784,45.596998 C37.9351072,45.4431244 37.8801379,45.2621436 37.8801379,45.0769946 L37.8817298,41.7396099 C37.8188806,42.1301536 37.4802844,42.4284621 37.0720145,42.4284621 L37.0527713,42.4282363 L37.0527713,42.4282363 L26.4460932,42.1793104 C20.0816089,42.0299437 15,36.8276763 15,30.4614395 L15,15.2139576 C15,14.5435073 15.5435073,14 16.2139576,14 Z" id="Icon-Reply-Arrow-Copy" stroke="#111111" stroke-width="1.87" fill="#111111"></path>
    </g>
</svg>