<?xml version="1.0" encoding="UTF-8"?>
<svg width="60px" height="60px" viewBox="0 0 60 60" version="1.1" xmlns="http://www.w3.org/2000/svg" xmlns:xlink="http://www.w3.org/1999/xlink">
    <title>letsgo-pg7_icon_add</title>
    <g id="letsgo-pg7_icon_add" stroke="none" stroke-width="1" fill="none" fill-rule="evenodd">
        <path d="M30,15 C30.5917337,15 31.0714286,15.4796949 31.0714286,16.0714286 L31.071,28.928 L43.9285714,28.9285714 C44.5203051,28.9285714 45,29.4082663 45,30 C45,30.5917337 44.5203051,31.0714286 43.9285714,31.0714286 L31.071,31.071 L31.0714286,43.9285714 C31.0714286,44.5203051 30.5917337,45 30,45 C29.4082663,45 28.9285714,44.5203051 28.9285714,43.9285714 L28.928,31.071 L16.0714286,31.0714286 C15.4796949,31.0714286 15,30.5917337 15,30 C15,29.4082663 15.4796949,28.9285714 16.0714286,28.9285714 L28.928,28.928 L28.9285714,16.0714286 C28.9285714,15.4796949 29.4082663,15 30,15 Z" id="Icon-Plus-Copy" stroke="#111111" stroke-width="1.87" fill="#111111"></path>
    </g>
</svg>