<?xml version="1.0" encoding="UTF-8"?>
<svg width="60px" height="60px" viewBox="0 0 60 60" version="1.1" xmlns="http://www.w3.org/2000/svg" xmlns:xlink="http://www.w3.org/1999/xlink">
    <title>letsgo-pg7_icon_search</title>
    <g id="letsgo-pg7_icon_search" stroke="none" stroke-width="1" fill="none" fill-rule="evenodd">
        <path d="M26.2468439,15.935 C29.094381,15.935 31.672342,17.0891924 33.5384187,18.9552692 C35.4044954,20.8213459 36.5586879,23.3993069 36.5586879,26.2468439 C36.5586879,28.6295447 35.7508094,30.8236307 34.3934472,32.5696249 L34.185754,32.8281309 L43.792998,42.4356466 C43.9755681,42.6182167 44.0668532,42.857504 44.0668532,43.0967914 C44.0668532,43.3360788 43.9755681,43.5753661 43.792998,43.7579362 C43.5958952,43.9550391 43.3464864,44.0591957 43.0964472,44.0624673 C42.8959738,44.0650904 42.6969726,44.0024494 42.5310028,43.8762915 L42.4356372,43.7929887 L32.8281309,34.185754 C31.0425678,35.6680018 28.7486798,36.5586879 26.2468439,36.5586879 C23.3993069,36.5586879 20.8213459,35.4044954 18.9552692,33.5384187 C17.0891924,31.672342 15.935,29.094381 15.935,26.2468439 C15.935,23.3993069 17.0891924,20.8213459 18.9552692,18.9552692 C20.8213459,17.0891924 23.3993069,15.935 26.2468439,15.935 Z M26.2468439,17.813948 C23.918164,17.813948 21.80994,18.757832 20.283886,20.283886 C18.757832,21.80994 17.813948,23.918164 17.813948,26.2468439 C17.813948,28.5755239 18.757832,30.6837478 20.283886,32.2098019 C21.80994,33.7358559 23.918164,34.6797399 26.2468439,34.6797399 C28.5755239,34.6797399 30.6837478,33.7358559 32.2098019,32.2098019 C33.7358559,30.6837478 34.6797399,28.5755239 34.6797399,26.2468439 C34.6797399,23.918164 33.7358559,21.80994 32.2098019,20.283886 C30.6837478,18.757832 28.5755239,17.813948 26.2468439,17.813948 Z" id="Icon-Search-Copy" stroke="#111111" stroke-width="1.87" fill="#111111"></path>
    </g>
</svg>