<?xml version="1.0" encoding="UTF-8"?>
<svg width="600px" height="621px" viewBox="0 0 600 621" version="1.1" xmlns="http://www.w3.org/2000/svg" xmlns:xlink="http://www.w3.org/1999/xlink">
    <title>toss_it_pg1-icon</title>
    <defs>
        <linearGradient x1="-25.199148%" y1="-37.7270051%" x2="112.115617%" y2="118.62421%" id="linearGradient-1">
            <stop stop-color="#FFFFFF" offset="0%"></stop>
            <stop stop-color="#85BBB4" offset="51.3449936%"></stop>
            <stop stop-color="#304848" offset="100%"></stop>
        </linearGradient>
        <filter color-interpolation-filters="auto" id="filter-2">
            <feColorMatrix in="SourceGraphic" type="matrix" values="0 0 0 0 0.188235 0 0 0 0 0.282353 0 0 0 0 0.282353 0 0 0 1.000000 0"></feColorMatrix>
        </filter>
        <path d="M331.543553,352.875984 C322.286386,355.422052 309.863755,357.701972 294.616922,359.653329 C262.972488,363.703248 221.923498,365.933707 179.032145,365.933707 C136.140791,365.933707 95.0918009,363.703248 63.4473673,359.653329 C48.2009882,357.701972 35.7772232,355.422052 26.5210762,352.875984 C16.3733386,350.084967 13.0910973,347.786205 12.1635666,346.948899 L12.1635666,213.879776 C13.8451625,214.608738 15.7242598,215.31768 17.8180916,216.013668 C26.8667602,219.023728 39.6864349,221.708757 55.9214545,223.993388 C88.8493069,228.627419 132.570574,231.179375 179.032145,231.179375 C225.493715,231.179375 269.214983,228.627419 302.142835,223.993388 C318.377174,221.708757 331.197756,219.023728 340.246311,216.013668 C342.34037,215.31768 344.219014,214.608738 345.900383,213.879776 L345.900383,346.948899 C344.972965,347.786205 341.690724,350.084967 331.543553,352.875984 Z M26.5210762,195.562693 C35.7772232,193.016626 48.2009882,190.735528 63.4473673,188.784171 C95.0918009,184.735429 136.140791,182.50497 179.032145,182.50497 C221.923498,182.50497 262.972488,184.735429 294.616922,188.784171 C309.863755,190.735528 322.28752,193.016626 331.543553,195.562693 C338.981033,197.608262 342.730384,199.390038 344.568212,200.52411 C342.730384,201.659359 338.981033,203.441135 331.543553,205.486704 C322.28752,208.032771 309.863755,210.312691 294.616922,212.264048 C262.972488,216.313968 221.923498,218.544426 179.032145,218.544426 C136.140791,218.544426 95.0918009,216.313968 63.4473673,212.264048 C48.2009882,210.312691 35.7772232,208.032771 26.5210762,205.486704 C19.0832567,203.441135 15.333452,201.659359 13.4960772,200.52411 C15.333452,199.390038 19.0832567,197.608262 26.5210762,195.562693 Z M358.064516,200.52411 C358.064516,197.841435 356.981773,193.897504 351.825423,190.352794 C349.049974,188.443832 345.262075,186.704451 340.246311,185.035729 C331.197756,182.024491 318.377174,179.34064 302.142835,177.056009 C269.214983,172.421978 225.493715,169.870022 179.032145,169.870022 C132.570574,169.870022 88.8493069,172.421978 55.9214545,177.056009 C39.6864349,179.34064 26.8667602,182.024491 17.8180916,185.035729 C12.8022148,186.704451 9.01454237,188.443832 6.23829914,190.352794 C1.08251604,193.897504 0,197.841435 0,200.52411 L0,200.52411 L0,347.91339 C0,350.597242 1.08240267,354.539996 6.23829914,358.085884 C9.01442899,359.994846 12.8022148,361.734227 17.8180916,363.402949 C26.8666468,366.413009 39.6864349,369.098038 55.9214545,371.382669 C88.8493069,376.0167 132.570574,378.567478 179.032145,378.567478 C225.493715,378.567478 269.214983,376.0167 302.142835,371.382669 C318.377174,369.098038 331.197756,366.413009 340.246311,363.402949 C345.262075,361.734227 349.049974,359.994846 351.825423,358.085884 C356.981773,354.539996 358.064516,350.597242 358.064516,347.91339 L358.064516,200.533531 C358.064516,200.529998 358.064516,200.527643 358.064516,200.52411 L358.064516,200.52411 Z" id="path-3"></path>
        <filter x="-8.2%" y="-14.1%" width="112.0%" height="120.6%" filterUnits="objectBoundingBox" id="filter-4">
            <feMorphology radius="5.5" operator="erode" in="SourceAlpha" result="shadowSpreadOuter1"></feMorphology>
            <feOffset dx="11" dy="11" in="shadowSpreadOuter1" result="shadowOffsetOuter1"></feOffset>
            <feGaussianBlur stdDeviation="13.5" in="shadowOffsetOuter1" result="shadowBlurOuter1"></feGaussianBlur>
            <feColorMatrix values="0 0 0 0 0   0 0 0 0 0   0 0 0 0 0  0 0 0 0.5 0" type="matrix" in="shadowBlurOuter1"></feColorMatrix>
        </filter>
        <filter x="-6.3%" y="-18.8%" width="112.5%" height="137.5%" filterUnits="objectBoundingBox" id="filter-5">
            <feGaussianBlur stdDeviation="10.619469" in="SourceGraphic"></feGaussianBlur>
        </filter>
    </defs>
    <g id="toss_it_pg1-icon" stroke="none" stroke-width="1" fill="none" fill-rule="evenodd">
        <g id="App-icon-/-Android-Copy">
            <g id="App-icon">
                <rect id="App-icon-Background" fill="url(#linearGradient-1)" x="0" y="0" width="600" height="621.238938" rx="138.053097"></rect>
                <g filter="url(#filter-2)" id="PAO">
                    <g transform="translate(120.967742, 121.335730)">
                        <g id="Fill-3-Copy-6">
                            <use fill="black" fill-opacity="1" filter="url(#filter-4)" xlink:href="#path-3"></use>
                            <use fill="#304848" fill-rule="evenodd" xlink:href="#path-3"></use>
                        </g>
                        <path d="M333.275752,45.7985151 C325.034919,50.898473 313.628018,56.7201188 299.372004,63.1018639 C269.7814,76.3484484 230.476643,90.8100673 188.69894,103.822961 C146.921237,116.835855 106.260424,127.282277 74.204884,133.237651 C58.7611589,136.107241 45.966273,137.823423 36.1756107,138.340507 C25.4412814,138.906624 21.5452877,137.833453 20.3874146,137.360946 L16.3776422,125.50146 C18.1369172,125.638531 20.0608231,125.708739 22.170142,125.708739 C22.2910029,125.708739 22.4129087,125.707624 22.5350468,125.707624 C32.2647561,125.671963 45.5686278,124.198721 62.076997,121.330246 C95.5594156,115.509715 138.923055,104.541752 184.176815,90.4456572 C229.431736,76.3495628 271.240786,60.7882501 301.904162,46.6275202 C317.021644,39.6455571 328.692094,33.3395914 336.589269,27.8846959 C338.416695,26.6225221 340.031657,25.4142854 341.446925,24.248619 L345.457046,36.1076591 C344.808042,37.1427175 342.310715,40.2073281 333.275752,45.7985151 Z M24.7885628,104.658764 C33.029628,99.559252 44.4366453,93.7376062 58.6930077,87.3554153 C88.2833801,74.109611 127.586975,59.6478806 169.364678,46.6348752 C211.142381,33.6217584 251.804356,23.1752252 283.85978,17.2196281 C299.303505,14.3503724 312.09781,12.6335218 321.888588,12.1168842 C329.757899,11.7017688 333.951459,12.1674781 336.085391,12.6318502 C334.641098,14.2109605 331.530758,16.9518368 324.90837,21.0499456 C316.667537,26.1499034 305.260635,31.9715492 291.004621,38.3534058 C261.414017,51.599433 222.110421,66.0609405 180.332719,79.0742802 C138.555016,92.0871741 97.8930412,102.533596 65.8378494,108.48897 C50.3941243,111.35856 37.5992384,113.075856 27.8086923,113.591825 C19.9399622,114.007498 15.7466344,113.541677 13.6120056,113.076971 C15.0561831,111.497861 18.1665229,108.757542 24.7885628,104.658764 Z M357.597704,33.2856542 L349.232643,8.54343677 C349.232643,8.5413194 349.231482,8.53909059 349.231482,8.53708467 C348.414133,6.12172573 346.160616,2.90098712 340.059521,1.27384604 C336.773869,0.397813165 332.557089,-0.0185281189 327.161886,0.000631959975 C317.432641,0.0369691935 304.128653,1.50987678 287.620284,4.37913241 C254.137981,10.1987723 210.775503,21.1667351 165.520582,35.2628296 C120.265661,49.3588126 78.4566105,64.920571 47.7936992,79.0809666 C32.6756368,86.0638212 21.0057674,92.3691183 13.1082443,97.8241252 C8.73043241,100.847503 5.57028542,103.562191 3.44726664,106.123091 C-0.495863978,110.878252 -0.350157506,114.756378 0.466379245,117.171291 L8.8334138,141.919972 C9.64995055,144.335999 11.9040471,147.556626 18.0050267,149.183656 C21.2155615,150.039518 25.3177501,150.456305 30.5370605,150.456305 C30.6579214,150.456305 30.7798272,150.456305 30.9019652,150.456305 C40.6316746,150.420644 53.9355463,148.947402 70.4439155,146.077813 C103.926798,140.258396 147.289277,129.290433 192.544198,115.194338 C237.797958,101.098244 279.608169,85.5367082 310.270384,71.3759783 C325.389027,64.3941267 337.058316,58.088161 344.956651,52.633154 C349.333651,49.609442 352.493914,46.8947542 354.617397,44.3341885 C358.560179,39.5785814 358.415053,35.7010132 357.597704,33.2856542 L357.597704,33.2856542 Z" id="Fill-4-Copy-6" fill="#304848"></path>
                    </g>
                </g>
                <g id="White-fill" transform="translate(129.926981, 113.841172)" fill="#FFFFFF">
                    <path d="M0.718179929,221.045443 C29.750438,232.370111 87.0085025,238.032445 172.492373,238.032445 C257.976244,238.032445 312.814954,232.370111 337.008503,221.045443 L337.008503,354.514746 C317.653664,367.457224 262.814954,373.928462 172.492373,373.928462 C82.1697928,373.928462 25.7181799,367.457224 3.13753477,354.514746 L0.718179929,221.045443 Z" id="Rectangle"></path>
                    <path d="M170.073019,225.898872 C264.941286,225.898872 337.008503,218.293532 337.008503,208.91187 C337.008503,199.530207 264.941286,189.498153 170.073019,189.498153 C75.2047511,189.498153 0.718179929,199.530207 0.718179929,208.91187 C0.718179929,218.293532 75.2047511,225.898872 170.073019,225.898872 Z" id="Oval"></path>
                    <path d="M174.426717,88.4690745 C245.60219,88.6309991 338.93469,83.2341842 335.78134,69.4516053 C332.627991,55.6690263 207.082287,50.5991366 171.119602,51.6721456 C135.156917,52.7451546 -7.94392599,54.729248 -2.48963352,69.2594487 C2.96465896,83.7896495 103.251243,88.3071498 174.426717,88.4690745 Z" id="Oval-Copy" transform="translate(166.608856, 70.002923) rotate(-18.000000) translate(-166.608856, -70.002923) "></path>
                    <path d="M2.38890688,80.5418709 C34.3785981,91.8501423 93.1264937,97.4679241 178.632594,97.3952165 C264.138694,97.3225088 319.43766,91.0460154 344.529492,78.5657362 L344.899757,93.9045103 C330.007036,105.436038 275.03506,111.467778 179.983831,111.999729 C84.9326014,112.53168 25.857715,107.158652 2.75917185,95.880645 L2.38890688,80.5418709 Z" id="Rectangle-Copy" transform="translate(173.644332, 95.300703) rotate(-17.000000) translate(-173.644332, -95.300703) "></path>
                </g>
            </g>
            <path d="M90.6298003,476.984237 L451.3089,633.372511 C499.745422,633.372511 537.802689,617.194414 565.480701,584.838219 C593.158714,552.482024 603.537969,531.810011 596.618466,522.822179 L466.877782,463.502489 L466.877782,468.895188 C466.877782,481.478153 427.955577,491.364768 350.111167,498.555033 C319.22715,501.407702 273.015475,499.970698 230.749738,498.555033 C199.915567,497.522261 168.47421,490.465985 142.526074,490.465985 C125.227316,490.465985 107.928558,485.972069 90.6298003,476.984237 Z" id="Path-3" fill="#D8D8D8" opacity="0.414318266" filter="url(#filter-5)"></path>
        </g>
    </g>
</svg>