<?xml version="1.0" encoding="UTF-8"?>
<svg width="85px" height="85px" viewBox="0 0 85 85" version="1.1" xmlns="http://www.w3.org/2000/svg" xmlns:xlink="http://www.w3.org/1999/xlink">
    <title>toss_it_pg11-logo_alt</title>
    <g id="toss_it_pg11-logo_alt" stroke="none" stroke-width="1" fill="none" fill-rule="evenodd">
        <g id="Group-3-Copy" transform="translate(1.000000, 4.000000)">
            <rect id="Rectangle-Copy-4" stroke="#304848" stroke-width="0.5976" fill="#FFFFFF" x="0.2988" y="0.2988" width="82.4024" height="75.4024" rx="0.83"></rect>
            <path d="M58.8891627,56.0455038 C57.803322,56.338299 56.346181,56.6004875 54.5577687,56.8248917 C50.8459622,57.2906284 46.0310266,57.5471289 40.9999867,57.5471289 C35.9689468,57.5471289 31.1540112,57.2906284 27.4422047,56.8248917 C25.6538456,56.6004875 24.1965716,56.338299 23.1108506,56.0455038 C21.9205484,55.7245395 21.5355503,55.4601842 21.4267535,55.3638949 L21.4267535,40.061078 C21.6240001,40.1449079 21.8444132,40.2264355 22.090014,40.3064735 C23.1513984,40.6526273 24.6551116,40.961403 26.5594355,41.2241333 C30.4217836,41.7570423 35.5501701,42.0505146 40.9999867,42.0505146 C46.4498033,42.0505146 51.5781898,41.7570423 55.4405379,41.2241333 C57.3447821,40.961403 58.8486016,40.6526273 59.9099727,40.3064735 C60.1556001,40.2264355 60.37596,40.1449079 60.57318,40.061078 L60.57318,55.3638949 C60.4643965,55.4601842 60.0793984,55.7245395 58.8891627,56.0455038 Z M23.1108506,37.9546316 C24.1965716,37.6618364 25.6538456,37.3995125 27.4422047,37.1751083 C31.1540112,36.709507 35.9689468,36.4530065 40.9999867,36.4530065 C46.0310266,36.4530065 50.8459622,36.709507 54.5577687,37.1751083 C56.346181,37.3995125 57.803455,37.6618364 58.8891627,37.9546316 C59.761559,38.18987 60.2013477,38.3947725 60.41692,38.5251896 C60.2013477,38.6557421 59.761559,38.8606446 58.8891627,39.095883 C57.803455,39.3886782 56.346181,39.6508667 54.5577687,39.8752709 C50.8459622,40.3410076 46.0310266,40.5975081 40.9999867,40.5975081 C35.9689468,40.5975081 31.1540112,40.3410076 27.4422047,39.8752709 C25.6538456,39.6508667 24.1965716,39.3886782 23.1108506,39.095883 C22.2384144,38.8606446 21.7985725,38.6557421 21.5830534,38.5251896 C21.7985725,38.3947725 22.2384144,38.18987 23.1108506,37.9546316 Z M62,38.5251896 C62,38.2166847 61.8729972,37.7631365 61.2681713,37.3554984 C60.9426185,37.1359697 60.4983082,36.9359426 59.9099727,36.7440412 C58.8486016,36.3977519 57.3447821,36.0891116 55.4405379,35.8263814 C51.5781898,35.2934724 46.4498033,35 40.9999867,35 C35.5501701,35 30.4217836,35.2934724 26.5594355,35.8263814 C24.6551116,36.0891116 23.1513984,36.3977519 22.090014,36.7440412 C21.5016652,36.9359426 21.0573815,37.1359697 20.7317356,37.3554984 C20.1269762,37.7631365 20,38.2166847 20,38.5251896 L20,38.5251896 L20,55.4748104 C20,55.7834507 20.1269629,56.2368635 20.7317356,56.6446371 C21.0573682,56.8641658 21.5016652,57.0641928 22.090014,57.2560943 C23.1513851,57.6022481 24.6551116,57.9110238 26.5594355,58.1737541 C30.4217836,58.7066631 35.5501701,59 40.9999867,59 C46.4498033,59 51.5781898,58.7066631 55.4405379,58.1737541 C57.3447821,57.9110238 58.8486016,57.6022481 59.9099727,57.2560943 C60.4983082,57.0641928 60.9426185,56.8641658 61.2681713,56.6446371 C61.8729972,56.2368635 62,55.7834507 62,55.4748104 L62,38.526273 C62,38.5258667 62,38.5255959 62,38.5251896 L62,38.5251896 Z" id="Fill-3-Copy-7" fill="#304848"></path>
            <path d="M59.092345,19.479154 C58.1257176,20.0892929 56.7877189,20.7857717 55.115527,21.5492586 C51.644629,23.1340278 47.0342873,24.8641589 42.1338757,26.4209703 C37.2334641,27.9777817 32.4640606,29.2275505 28.7040323,29.940028 C26.8925251,30.2833345 25.3917196,30.4886517 24.2433014,30.5505135 C22.9841935,30.6182416 22.527204,30.4898516 22.3913886,30.4333227 L21.9210532,29.0145005 C22.1274114,29.0308992 22.3530803,29.0392986 22.6004977,29.0392986 C22.6146744,29.0392986 22.6289736,29.0391652 22.6433001,29.0391652 C23.7845687,29.0348989 25.3450769,28.858646 27.281464,28.5154729 C31.2088612,27.8191275 36.2952989,26.5069636 41.6034426,24.8205623 C46.9117226,23.1341611 51.8158112,21.2724669 55.4125423,19.5783329 C57.185782,18.7430384 58.5546943,17.9886175 59.4810115,17.3360152 C59.6953637,17.1850137 59.8847943,17.040465 60.0508015,16.9010093 L60.5211778,18.3197782 C60.4450515,18.4436085 60.1521217,18.8102464 59.092345,19.479154 Z M22.9076314,26.5209625 C23.8742861,25.9108769 25.2122984,25.2143982 26.8845312,24.450858 C30.3554019,22.8661821 34.9656074,21.1360376 39.866019,19.5792129 C44.7664307,18.0223748 49.5359704,16.7725927 53.295985,16.0600885 C55.1074922,15.7168221 56.6082296,15.5114248 57.7566615,15.4496163 C58.6797103,15.3999535 59.1716036,15.4556692 59.4219081,15.5112248 C59.2524963,15.7001434 58.8876619,16.028051 58.1108736,16.5183326 C57.1442462,17.1284715 55.8062475,17.8249503 54.1340556,18.5884505 C50.6631576,20.173153 46.0529521,21.9032708 41.1525405,23.4601356 C36.2521289,25.016947 31.4825892,26.2667157 27.7226018,26.9791933 C25.9110946,27.3224997 24.410289,27.5279503 23.2618844,27.5896788 C22.3389037,27.6394082 21.8470377,27.5836792 21.5966515,27.5280836 C21.7660496,27.3391651 22.130884,27.0113241 22.9076314,26.5209625 Z M61.9452442,17.9821646 L60.9640451,15.0221031 C60.9640451,15.0218498 60.963909,15.0215832 60.963909,15.0213432 C60.8680361,14.7323792 60.6037047,14.3470627 59.8880627,14.1523979 C59.5026646,14.0475928 59.0080477,13.9977834 58.375205,14.0000756 C57.2339908,14.0044228 55.673469,14.1806357 53.7370819,14.5239022 C49.8096983,15.220141 44.7233968,16.5323049 39.4151169,18.2187061 C34.1068369,19.905094 29.2027484,21.7668415 25.6060717,23.4609355 C23.8327639,24.2963367 22.4639197,25.0506776 21.5375616,25.7032932 C21.0240561,26.0649982 20.6533794,26.3897728 20.4043551,26.6961488 C19.9418365,27.2650375 19.9589275,27.7290012 20.054705,28.0179119 L21.0361356,30.9787467 C21.1319131,31.2677907 21.3963126,31.6530938 22.111941,31.8477453 C22.488528,31.9501372 22.9697037,32 23.5819147,32 C23.5960913,32 23.6103905,32 23.624717,32 C24.7659856,31.9957337 26.3264938,31.8194808 28.2628809,31.4761744 C32.1903326,30.7799622 37.2766341,29.4677983 42.584914,27.7813971 C47.8930578,26.0949958 52.7972826,24.233275 56.3938775,22.539141 C58.1672534,21.7038598 59.5360295,20.9494389 60.4624829,20.2968233 C60.9758931,19.9350783 61.3465834,19.6103038 61.5956622,19.3039678 C62.0581399,18.7350257 62.0411171,18.2711287 61.9452442,17.9821646 L61.9452442,17.9821646 Z" id="Fill-4-Copy-7" fill="#304848"></path>
        </g>
    </g>
</svg>