<?xml version="1.0" encoding="UTF-8"?>
<svg width="50px" height="50px" viewBox="0 0 50 50" version="1.1" xmlns="http://www.w3.org/2000/svg" xmlns:xlink="http://www.w3.org/1999/xlink">
    <title>toss_it_pg11-timer_icon</title>
    <defs>
        <filter color-interpolation-filters="auto" id="filter-1">
            <feColorMatrix in="SourceGraphic" type="matrix" values="0 0 0 0 0.188235 0 0 0 0 0.282353 0 0 0 0 0.282353 0 0 0 1.000000 0"></feColorMatrix>
        </filter>
    </defs>
    <g id="toss_it_pg11-timer_icon" stroke="none" stroke-width="1" fill="none" fill-rule="evenodd">
        <g id="Hour-Glass-Copy" transform="translate(8.013333, 1.000000)" filter="url(#filter-1)">
            <g>
                <path d="M17.4170043,23.309439 C25.3529781,22.2434586 31.6034353,13.1470921 31.6034353,2.13196089 L31.6034353,0 L0,0 L0,2.13196089 L0,2.13196089 C0,13.1470921 6.2504572,22.2434586 14.186431,23.309439 C14.5375802,23.3805044 14.7482698,23.5937005 14.7482698,23.9490273 C14.7482698,24.1622234 14.6078101,24.3754195 14.4673504,24.5175502 C14.4673504,24.5175502 14.3971205,24.5886156 14.3268907,24.5886156 C14.2566608,24.5886156 14.186431,24.6596809 14.186431,24.6596809 C6.2504572,25.7256614 0,34.8220278 0,45.8371591 L0,47.96912 L31.6034353,47.96912 L31.6034353,45.8371591 L31.6034353,45.8371591 C31.6034353,34.8220278 25.4232079,25.7256614 17.4170043,24.6596809 C17.3467745,24.6596809 17.2765446,24.6596809 17.2765446,24.5886156 C17.2063148,24.5886156 17.2063148,24.5175502 17.1360849,24.5175502 C16.9956252,24.3754195 16.8551655,24.2332887 16.8551655,24.0200927 L16.8551655,24.0200927 C16.8551655,23.5937005 17.1360849,23.309439 17.4170043,23.309439 Z M15.0994191,31.0555636 C15.0994191,31.6240865 14.8184997,31.9794133 14.3268907,31.9794133 C10.3237889,32.1926094 6.81229605,33.3296552 4.56494065,34.8930932 C4.70540036,34.6088317 4.84586008,34.3245703 4.98631979,34.0403088 C4.98631979,34.0403088 4.98631979,33.9692435 5.05654965,33.9692435 C5.19700936,33.684982 5.33746907,33.4717859 5.47792878,33.1875245 C5.47792878,33.1875245 5.47792878,33.1164591 5.54815864,33.1164591 C6.2504572,32.0504787 7.02298562,31.0555636 7.79551404,30.2027792 C7.79551404,30.2027792 7.79551404,30.2027792 7.86574389,30.1317139 C8.07643346,29.9185178 8.28712303,29.7763871 8.42758274,29.563191 C8.42758274,29.563191 8.4978126,29.563191 8.4978126,29.4921256 C8.70850217,29.2789295 8.91919174,29.1367988 9.1298813,28.9236027 C9.1298813,28.9236027 9.1298813,28.9236027 9.1298813,28.9236027 C9.83217987,28.3550798 10.5344784,27.9286876 11.3070068,27.5733608 C11.3070068,27.5733608 11.3070068,27.5733608 11.3070068,27.5733608 C11.5176964,27.4312301 11.7986158,27.3601647 12.0093054,27.2890994 C12.0093054,27.2890994 12.0795353,27.2890994 12.0795353,27.2890994 C12.2902248,27.218034 12.5711443,27.0759033 12.7818338,27.0048379 C12.7818338,27.0048379 12.7818338,27.0048379 12.7818338,27.0048379 C13.5543622,26.7916418 14.3971205,26.5784457 15.2398788,26.5784457 L15.0994191,31.0555636 Z M18.7513716,27.0759033 C18.7513716,27.0759033 18.7513716,27.0759033 18.7513716,27.0759033 C19.032291,27.1469686 19.2429806,27.218034 19.5239,27.3601647 C19.5239,27.3601647 19.5941299,27.3601647 19.5941299,27.3601647 C19.8048194,27.4312301 20.0857389,27.5733608 20.2964284,27.6444262 C20.2964284,27.6444262 20.2964284,27.6444262 20.2964284,27.6444262 C21.0689569,27.999753 21.7712554,28.4972105 22.473554,28.9946681 C22.473554,28.9946681 22.473554,28.9946681 22.473554,28.9946681 C22.6842435,29.1367988 22.8949331,29.3499949 23.1056227,29.563191 C23.1056227,29.563191 23.1758525,29.563191 23.1758525,29.6342563 C23.3865421,29.8474524 23.5972317,29.9895831 23.7376914,30.2027792 C23.7376914,30.2027792 23.7376914,30.2027792 23.8079212,30.2738446 C24.6506795,31.1266289 25.4232079,32.121544 26.0552766,33.1875245 C26.0552766,33.1875245 26.0552766,33.2585898 26.1255065,33.2585898 C26.2659662,33.4717859 26.4064259,33.7560474 26.5468856,34.0403088 C26.5468856,34.0403088 26.5468856,34.1113742 26.6171155,34.1113742 C26.7575752,34.3956356 26.8980349,34.6798971 27.0384946,34.9641585 C27.0384946,34.9641585 27.0384946,34.9641585 27.0384946,34.9641585 C24.7911392,33.4007206 21.2796464,32.2636748 17.2765446,32.0504787 C16.7147058,32.0504787 16.5040162,31.6951519 16.5040162,31.1266289 L16.3635565,26.7205764 C17.1360849,26.6495111 17.9788432,26.7916418 18.7513716,27.0759033 Z M13.4139025,20.751086 C12.8520637,20.751086 12.219995,20.6089552 11.728386,20.3957592 C6.18022734,17.9795368 2.10689569,10.6598044 2.10689569,2.06089552 L29.4965396,2.06089552 C29.4965396,10.7308698 25.4232079,18.0506022 19.7345896,20.3957592 C19.2429806,20.6089552 18.7513716,20.6800206 18.2597626,20.6800206 L13.4139025,20.751086 Z" id="Shape" fill="#FF918F" fill-rule="nonzero"></path>
            </g>
        </g>
    </g>
</svg>