<?xml version="1.0" encoding="UTF-8"?>
<svg width="50px" height="50px" viewBox="0 0 50 50" version="1.1" xmlns="http://www.w3.org/2000/svg" xmlns:xlink="http://www.w3.org/1999/xlink">
    <title>toss_it_pg11-trash_icon</title>
    <defs>
        <filter color-interpolation-filters="auto" id="filter-1">
            <feColorMatrix in="SourceGraphic" type="matrix" values="0 0 0 0 0.188235 0 0 0 0 0.282353 0 0 0 0 0.282353 0 0 0 1.000000 0"></feColorMatrix>
        </filter>
    </defs>
    <g id="toss_it_pg11-trash_icon" stroke="none" stroke-width="1" fill="none" fill-rule="evenodd">
        <g id="icon-/-Learn-More-/-Toss-Copy" transform="translate(2.343333, 2.000000)" filter="url(#filter-1)">
            <g>
                <path d="M45,2.81632653 C45,1.2612449 43.7661735,0 42.244898,0 L2.75510204,0 C1.23382653,0 0,1.2612449 0,2.81632653 C0,4.35544898 1.20857143,5.60402041 2.70780612,5.63030612 L9.13683673,46 L35.8636224,46 L42.2921939,5.63030612 C43.7914286,5.60402041 45,4.35544898 45,2.81632653 Z M8.29102041,5.63265306 L19.8978061,5.63265306 L19.9230612,5.65846939 L14.0179592,11.6741429 L8.32637755,5.85608163 L8.29102041,5.63265306 Z M22.5156122,8.31802041 L28.3803061,14.3336939 L22.5,20.3446735 L16.615102,14.329 L22.5156122,8.31802041 Z M11.4157653,14.3247755 L9.91790816,15.8507551 L9.33658163,12.1993878 L11.4157653,14.3247755 Z M11.6302041,26.6006735 L10.6447959,20.4122653 L14.0133673,16.980102 L19.902398,23 L14.005102,29.0288163 L11.6302041,26.6006735 Z M22.5,25.6548571 L28.3977551,31.6836735 L22.5,37.7124898 L16.6027041,31.6836735 L22.5,25.6548571 Z M25.0971429,23 L30.9737755,16.9932449 L34.3487755,20.4549796 L33.3697959,26.6016122 L30.994898,29.0288163 L25.0971429,23 Z M35.0770408,15.8822041 L33.5713776,14.3379184 L35.6638776,12.1993878 L35.0770408,15.8822041 Z M30.9783673,11.6783673 L25.1173469,5.66691837 L25.1508673,5.63265306 L36.7089796,5.63265306 L36.6736224,5.85655102 L30.9783673,11.6783673 Z M13.022449,35.3434898 L14.005102,34.3385306 L19.902398,40.3673469 L19.902398,40.3673469 L13.8223469,40.3673469 L13.022449,35.3434898 Z M25.0971429,40.3673469 L30.994898,34.3385306 L31.977551,35.3430204 L31.1771939,40.3673469 L25.0971429,40.3673469 Z" id="icon-/-Learn-More-/-Toss" fill="#6F859C" fill-rule="nonzero"></path>
            </g>
        </g>
    </g>
</svg>