<?xml version="1.0" encoding="UTF-8"?>
<svg width="50px" height="50px" viewBox="0 0 50 50" version="1.1" xmlns="http://www.w3.org/2000/svg" xmlns:xlink="http://www.w3.org/1999/xlink">
    <title>toss_it_pg11-logo_icon</title>
    <defs>
        <filter x="-6.0%" y="-5.3%" width="111.9%" height="110.6%" filterUnits="objectBoundingBox" id="filter-1">
            <feOffset dx="0" dy="-1" in="SourceAlpha" result="shadowOffsetOuter1"></feOffset>
            <feColorMatrix values="0 0 0 0 0.188235294   0 0 0 0 0.282352941   0 0 0 0 0.282352941  0 0 0 1 0" type="matrix" in="shadowOffsetOuter1" result="shadowMatrixOuter1"></feColorMatrix>
            <feMerge>
                <feMergeNode in="shadowMatrixOuter1"></feMergeNode>
                <feMergeNode in="SourceGraphic"></feMergeNode>
            </feMerge>
        </filter>
    </defs>
    <g id="toss_it_pg11-logo_icon" stroke="none" stroke-width="1" fill="none" fill-rule="evenodd">
        <g id="PAO-logo-/-sign-up-screen-Copy" filter="url(#filter-1)" transform="translate(4.333333, 2.000000)" fill="#304848">
            <path d="M38.8891627,44.0455038 C37.803322,44.338299 36.346181,44.6004875 34.5577687,44.8248917 C30.8459622,45.2906284 26.0310266,45.5471289 20.9999867,45.5471289 C15.9689468,45.5471289 11.1540112,45.2906284 7.4422047,44.8248917 C5.65384564,44.6004875 4.19657159,44.338299 3.11085055,44.0455038 C1.92054836,43.7245395 1.53555034,43.4601842 1.42675348,43.3638949 L1.42675348,28.061078 C1.62400014,28.1449079 1.84441317,28.2264355 2.09001399,28.3064735 C3.15139836,28.6526273 4.65511155,28.961403 6.55943548,29.2241333 C10.4217836,29.7570423 15.5501701,30.0505146 20.9999867,30.0505146 C26.4498033,30.0505146 31.5781898,29.7570423 35.4405379,29.2241333 C37.3447821,28.961403 38.8486016,28.6526273 39.9099727,28.3064735 C40.1556001,28.2264355 40.37596,28.1449079 40.57318,28.061078 L40.57318,43.3638949 C40.4643965,43.4601842 40.0793984,43.7245395 38.8891627,44.0455038 Z M3.11085055,25.9546316 C4.19657159,25.6618364 5.65384564,25.3995125 7.4422047,25.1751083 C11.1540112,24.709507 15.9689468,24.4530065 20.9999867,24.4530065 C26.0310266,24.4530065 30.8459622,24.709507 34.5577687,25.1751083 C36.346181,25.3995125 37.803455,25.6618364 38.8891627,25.9546316 C39.761559,26.18987 40.2013477,26.3947725 40.41692,26.5251896 C40.2013477,26.6557421 39.761559,26.8606446 38.8891627,27.095883 C37.803455,27.3886782 36.346181,27.6508667 34.5577687,27.8752709 C30.8459622,28.3410076 26.0310266,28.5975081 20.9999867,28.5975081 C15.9689468,28.5975081 11.1540112,28.3410076 7.4422047,27.8752709 C5.65384564,27.6508667 4.19657159,27.3886782 3.11085055,27.095883 C2.23841444,26.8606446 1.79857248,26.6557421 1.58305337,26.5251896 C1.79857248,26.3947725 2.23841444,26.18987 3.11085055,25.9546316 Z M42,26.5251896 C42,26.2166847 41.8729972,25.7631365 41.2681713,25.3554984 C40.9426185,25.1359697 40.4983082,24.9359426 39.9099727,24.7440412 C38.8486016,24.3977519 37.3447821,24.0891116 35.4405379,23.8263814 C31.5781898,23.2934724 26.4498033,23 20.9999867,23 C15.5501701,23 10.4217836,23.2934724 6.55943548,23.8263814 C4.65511155,24.0891116 3.15139836,24.3977519 2.09001399,24.7440412 C1.50166519,24.9359426 1.05738146,25.1359697 0.731735629,25.3554984 C0.126976206,25.7631365 0,26.2166847 0,26.5251896 L0,26.5251896 L0,43.4748104 C0,43.7834507 0.126962907,44.2368635 0.731735629,44.6446371 C1.05736816,44.8641658 1.50166519,45.0641928 2.09001399,45.2560943 C3.15138506,45.6022481 4.65511155,45.9110238 6.55943548,46.1737541 C10.4217836,46.7066631 15.5501701,47 20.9999867,47 C26.4498033,47 31.5781898,46.7066631 35.4405379,46.1737541 C37.3447821,45.9110238 38.8486016,45.6022481 39.9099727,45.2560943 C40.4983082,45.0641928 40.9426185,44.8641658 41.2681713,44.6446371 C41.8729972,44.2368635 42,43.7834507 42,43.4748104 L42,26.526273 C42,26.5258667 42,26.5255959 42,26.5251896 L42,26.5251896 Z" id="Bottom"></path>
            <path d="M39.092345,5.47915404 C38.1257176,6.08929291 36.7877189,6.7857717 35.115527,7.54925856 C31.644629,9.13402777 27.0342873,10.8641589 22.1338757,12.4209703 C17.2334641,13.9777817 12.4640606,15.2275505 8.70403234,15.940028 C6.89252512,16.2833345 5.39171959,16.4886517 4.24330137,16.5505135 C2.98419354,16.6182416 2.52720401,16.4898516 2.39138863,16.4333227 L1.92105316,15.0145005 C2.12741137,15.0308992 2.35308034,15.0392986 2.60049774,15.0392986 C2.6146744,15.0392986 2.62897362,15.0391652 2.64330008,15.0391652 C3.78456869,15.0348989 5.34507688,14.858646 7.28146397,14.5154729 C11.2088612,13.8191275 16.2952989,12.5069636 21.6034426,10.8205623 C26.9117226,9.13416109 31.8158112,7.27246691 35.4125423,5.57833294 C37.185782,4.74303836 38.5546943,3.98861745 39.4810115,3.33601523 C39.6953637,3.18501373 39.8847943,3.04046505 40.0508015,2.90100931 L40.5211778,4.31977818 C40.4450515,4.44360848 40.1521217,4.81024643 39.092345,5.47915404 Z M2.90763142,12.5209625 C3.8742861,11.9108769 5.21229839,11.2143982 6.88453118,10.450858 C10.3554019,8.86618208 14.9656074,7.13603759 19.866019,5.57921287 C24.7664307,4.02237481 29.5359704,2.7725927 33.295985,2.0600885 C35.1074922,1.71682206 36.6082296,1.51142481 37.7566615,1.44961632 C38.6797103,1.39995354 39.1716036,1.45566918 39.4219081,1.51122483 C39.2524963,1.70014336 38.8876619,2.02805101 38.1108736,2.51833261 C37.1442462,3.12847149 35.8062475,3.82495027 34.1340556,4.58845047 C30.6631576,6.17315301 26.0529521,7.90327083 21.1525405,9.46013556 C16.2521289,11.016947 11.4825892,12.2667157 7.7226018,12.9791933 C5.91109458,13.3224997 4.41028905,13.5279503 3.26188444,13.5896788 C2.33890368,13.6394082 1.84703766,13.5836792 1.59665147,13.5280836 C1.76604959,13.3391651 2.13088404,13.0113241 2.90763142,12.5209625 Z M41.9452442,3.98216462 L40.9640451,1.02210314 C40.9640451,1.02184982 40.963909,1.02158318 40.963909,1.0213432 C40.8680361,0.732379164 40.6037047,0.347062678 39.8880627,0.152397925 C39.5026646,0.0475928008 39.0080477,-0.0022166312 38.375205,7.5605203e-05 C37.2339908,0.00442284876 35.673469,0.180635713 33.7370819,0.52390216 C29.8096983,1.22014096 24.7233968,2.53230485 19.4151169,4.2187061 C14.1068369,5.90509401 9.20274836,7.76684152 5.60607174,9.46093549 C3.83276388,10.2963367 2.46391974,11.0506776 1.53756163,11.7032932 C1.02405613,12.0649982 0.653379424,12.3897728 0.40435506,12.6961488 C-0.0581635045,13.2650375 -0.041072529,13.7290012 0.054705025,14.0179119 L1.03613556,16.9787467 C1.13191312,17.2677907 1.39631255,17.6530938 2.11194097,17.8477453 C2.48852802,17.9501372 2.96970366,18 3.58191466,18 C3.59609132,18 3.61039054,18 3.624717,18 C4.76598561,17.9957337 6.32649381,17.8194808 8.2628809,17.4761744 C12.1903326,16.7799622 17.2766341,15.4677983 22.584914,13.7813971 C27.8930578,12.0949958 32.7972826,10.233275 36.3938775,8.53914103 C38.1672534,7.70385979 39.5360295,6.94943888 40.4624829,6.29682333 C40.9758931,5.93507833 41.3465834,5.61030376 41.5956622,5.30396776 C42.0581399,4.73502565 42.0411171,4.27112866 41.9452442,3.98216462 L41.9452442,3.98216462 Z" id="Lid"></path>
        </g>
    </g>
</svg>