<?xml version="1.0" encoding="UTF-8"?>
<svg width="50px" height="50px" viewBox="0 0 50 50" version="1.1" xmlns="http://www.w3.org/2000/svg" xmlns:xlink="http://www.w3.org/1999/xlink">
    <title>toss_it_pg11-lipstick_icon</title>
    <defs>
        <filter color-interpolation-filters="auto" id="filter-1">
            <feColorMatrix in="SourceGraphic" type="matrix" values="0 0 0 0 0.188235 0 0 0 0 0.282353 0 0 0 0 0.282353 0 0 0 1.000000 0"></feColorMatrix>
        </filter>
    </defs>
    <g id="toss_it_pg11-lipstick_icon" stroke="none" stroke-width="1" fill="none" fill-rule="evenodd">
        <g filter="url(#filter-1)" id="icon-/-Learn-More-/-Add-Product-Copy">
            <g transform="translate(2.003333, 0.000000)">
                <text id="􀁍" font-family="SFProText-Semibold, SF Pro Text" font-size="23.936" font-weight="500" line-spacing="30.976" letter-spacing="-0.574463987" fill="#3DACAB">
                    <tspan x="16.6200299" y="23.1476057">􀁍</tspan>
                </text>
                <path d="M10.6870089,49 L3.67825968,49 C1.65038861,49 0,47.3151479 0,45.2449308 L0,20.8552501 C0,20.075558 0.619233347,19.4433938 1.382977,19.4433938 L14.385527,19.4433938 C15.1492706,19.4433938 15.768504,20.075558 15.768504,20.8552501 L15.768504,33.7591209 C15.768504,34.5381236 15.1506212,35.1702878 14.3868776,35.1709772 C12.19964,35.1737347 10.2021566,36.4387525 9.22164752,38.4165923 L9.22164752,44.6803261 C9.22164752,45.5055176 9.87869657,46.1762873 10.6870089,46.1762873 C11.4507525,46.1762873 12.0699859,46.8084515 12.0699859,47.5881436 C12.0699859,48.3678358 11.4507525,49 10.6870089,49 Z M2.76595401,22.2671065 L2.76595401,45.2449308 C2.76595401,45.7585212 3.17517469,46.1762873 3.67825968,46.1762873 L6.71702748,46.1762873 C6.54820706,45.7102644 6.45569351,45.2063254 6.45569351,44.6803262 L6.45569351,38.0987868 C6.45569351,37.9002445 6.49688575,37.7044597 6.57589371,37.5231521 C7.75898739,34.8187027 10.1967545,32.936687 13.0025501,32.4637703 L13.0025501,22.2671065 L2.76595401,22.2671065 Z" id="Shape" fill="#000000" fill-rule="nonzero"></path>
                <path d="M12.3448255,22.2671065 L3.42367837,22.2671065 C2.65993471,22.2671065 2.04070137,21.6349423 2.04070137,20.8552501 L2.04070137,13.217576 C2.04070137,12.4378838 2.65993471,11.8057196 3.42367837,11.8057196 L12.3448255,11.8057196 C13.1085691,11.8057196 13.7278025,12.4378838 13.7278025,13.217576 L13.7278025,20.8552501 C13.7278025,21.6349423 13.1085691,22.2671065 12.3448255,22.2671065 Z M4.80665538,19.4433938 L10.9618484,19.4433938 L10.9618484,14.6294323 L4.80665538,14.6294323 L4.80665538,19.4433938 Z" id="Shape" fill="#000000" fill-rule="nonzero"></path>
                <path d="M5.16632607,13.2175424 L5.16632607,5.23245285 L7.94486904,6.67449399 C9.57157666,7.49205751 10.6018785,9.18224681 10.6018785,11.0332614 L10.6018785,13.2175424 L5.16632607,13.2175424 Z" id="Path" fill="#000000" fill-rule="nonzero"></path>
                <path d="M10.6019233,14.6294323 L5.16658054,14.6294323 C4.40283688,14.6294323 3.78360353,13.9972681 3.78360353,13.217576 L3.78360353,5.23245285 C3.78360353,4.74161209 4.03345783,4.28592994 4.44335382,4.0287901 C4.85460042,3.77096084 5.36443808,3.7530369 5.79324199,3.97363946 L8.57135112,5.4158287 C10.670802,6.47127407 11.9849003,8.62628531 11.9849003,11.0329213 L11.9849003,13.217576 C11.9849003,13.9972681 11.3656669,14.6294323 10.6019233,14.6294323 Z M6.54955754,11.8057196 L9.21894629,11.8057196 L9.21894629,11.0329213 C9.21894629,9.71068474 8.49639487,8.52563534 7.3335596,7.94103856 L6.54955754,7.53430265 L6.54955754,11.8057196 Z" id="Shape" fill="#000000" fill-rule="nonzero"></path>
                <rect id="Rectangle" fill="#000000" fill-rule="nonzero" x="1.382977" y="27.1480511" width="13.0022505" height="3.73216125"></rect>
                <path d="M28.9601327,49 L10.6870089,49 C8.35391049,49 6.45569351,47.0621444 6.45569351,44.6803262 L6.45569351,38.0987868 C6.45569351,37.3190946 7.07492685,36.6869305 7.83867051,36.6869305 L31.8084711,36.6869305 C32.5722148,36.6869305 33.1914481,37.3190946 33.1914481,38.0987868 L33.1914481,44.6803262 C33.1914481,47.0621444 31.2932311,49 28.9601327,49 Z M9.22164752,39.5106432 L9.22164752,44.6803262 C9.22164752,45.5055176 9.87869657,46.1762873 10.6870089,46.1762873 L28.9601327,46.1762873 C29.7684449,46.1762873 30.4254941,45.5055176 30.4254941,44.6803262 L30.4254941,39.5106432 L9.22164752,39.5106432 L9.22164752,39.5106432 Z" id="Shape" fill="#000000" fill-rule="nonzero"></path>
                <path d="M25.254031,33.7588382 L14.393199,33.7588382 C11.5611664,33.7588382 8.99373982,35.4587031 7.83874823,38.0985606 L31.8084711,38.0985606 C30.6534914,35.4587031 28.0860622,33.7588382 25.254031,33.7588382 Z" id="Path" fill="#000000" fill-rule="nonzero"></path>
                <path d="M31.8084711,39.5106432 L7.83867051,39.5106432 C7.37002497,39.5106432 6.93311764,39.2686698 6.67853646,38.8667594 C6.42327998,38.4655385 6.38478897,37.9595315 6.57589357,37.5231519 C7.95211777,34.3788762 11.0199227,32.3472645 14.3929551,32.3472645 L25.2541865,32.3472645 C28.6278941,32.3472645 31.6963743,34.3788761 33.071248,37.5231519 C33.2623528,37.9602207 33.2238618,38.4655385 32.9686051,38.8674487 C32.714024,39.2686698 32.2771166,39.5106432 31.8084711,39.5106432 Z M10.5208895,36.6869305 L29.1269274,36.6869305 C28.0822665,35.7300668 26.710094,35.1709772 25.2541865,35.1709772 L14.3929551,35.1709772 C12.9370476,35.1709772 11.5655504,35.7300668 10.5208895,36.6869305 Z" id="Shape" fill="#000000" fill-rule="nonzero"></path>
            </g>
        </g>
    </g>
</svg>