<?xml version="1.0" encoding="UTF-8"?>
<svg width="85px" height="85px" viewBox="0 0 85 85" version="1.1" xmlns="http://www.w3.org/2000/svg" xmlns:xlink="http://www.w3.org/1999/xlink">
    <title>toss_it_pg11-android_logo</title>
    <defs>
        <linearGradient x1="-26.4300267%" y1="-37.7270051%" x2="113.132341%" y2="118.62421%" id="linearGradient-1">
            <stop stop-color="#FFFFFF" offset="0%"></stop>
            <stop stop-color="#85BBB4" offset="51.3449936%"></stop>
            <stop stop-color="#304848" offset="100%"></stop>
        </linearGradient>
        <filter color-interpolation-filters="auto" id="filter-2">
            <feColorMatrix in="SourceGraphic" type="matrix" values="0 0 0 0 0.188235 0 0 0 0 0.282353 0 0 0 0 0.282353 0 0 0 1.000000 0"></feColorMatrix>
        </filter>
        <path d="M40.8903716,43.1695008 C39.7486543,43.480977 38.2165297,43.7598936 36.3360871,43.9986152 C32.4332736,44.4940669 27.3705648,44.7669327 22.0806312,44.7669327 C16.7906976,44.7669327 11.7279888,44.4940669 7.8251753,43.9986152 C5.94478854,43.7598936 4.4125242,43.480977 3.27093273,43.1695008 C2.01937843,42.8280583 1.61456867,42.5468366 1.50017321,42.4444038 L1.50017321,26.1652353 C1.70757004,26.2544138 1.93932537,26.341143 2.19756463,26.4262875 C3.31356709,26.7945267 4.89466031,27.123003 6.89697939,27.4024959 C10.9580812,27.9694056 16.3503708,28.2816021 22.0806312,28.2816021 C27.8108915,28.2816021 33.2031812,27.9694056 37.264283,27.4024959 C39.2665182,27.123003 40.8477232,26.7945267 41.9637117,26.4262875 C42.2219789,26.341143 42.4536783,26.2544138 42.6610472,26.1652353 L42.6610472,42.4444038 C42.5466657,42.5468366 42.141856,42.8280583 40.8903716,43.1695008 Z M3.27093273,23.9243933 C4.4125242,23.6129171 5.94478854,23.3338564 7.8251753,23.0951348 C11.7279888,22.5998272 16.7906976,22.3269613 22.0806312,22.3269613 C27.3705648,22.3269613 32.4332736,22.5998272 36.3360871,23.0951348 C38.2165297,23.3338564 39.7487941,23.6129171 40.8903716,23.9243933 C41.8076607,24.1746403 42.2700807,24.392616 42.4967462,24.531354 C42.2700807,24.6702361 41.8076607,24.8882118 40.8903716,25.1384589 C39.7487941,25.449935 38.2165297,25.7288517 36.3360871,25.9675733 C32.4332736,26.463025 27.3705648,26.7358908 22.0806312,26.7358908 C16.7906976,26.7358908 11.7279888,26.463025 7.8251753,25.9675733 C5.94478854,25.7288517 4.4125242,25.449935 3.27093273,25.1384589 C2.35360166,24.8882118 1.89112575,24.6702361 1.66451618,24.531354 C1.89112575,24.392616 2.35360166,24.1746403 3.27093273,23.9243933 Z M44.1612903,24.531354 C44.1612903,24.2031659 44.027752,23.7206804 43.3918022,23.2870341 C43.0494968,23.053499 42.5823225,22.8407097 41.9637117,22.6365646 C40.8477232,22.2681814 39.2665182,21.9398492 37.264283,21.6603562 C33.2031812,21.0934465 27.8108915,20.78125 22.0806312,20.78125 C16.3503708,20.78125 10.9580812,21.0934465 6.89697939,21.6603562 C4.89466031,21.9398492 3.31356709,22.2681814 2.19756463,22.6365646 C1.57893982,22.8407097 1.11179356,23.053499 0.769390227,23.2870341 C0.133510312,23.7206804 0,24.2031659 0,24.531354 L0,24.531354 L0,42.562396 C0,42.8907282 0.133496329,43.3730696 0.769390227,43.80686 C1.11177958,44.0403951 1.57893982,44.2531843 2.19756463,44.4573294 C3.31355311,44.8255686 4.89466031,45.1540449 6.89697939,45.4335379 C10.9580812,46.0004475 16.3503708,46.3125 22.0806312,46.3125 C27.8108915,46.3125 33.2031812,46.0004475 37.264283,45.4335379 C39.2665182,45.1540449 40.8477232,44.8255686 41.9637117,44.4573294 C42.5823225,44.2531843 43.0494968,44.0403951 43.3918022,43.80686 C44.027752,43.3730696 44.1612903,42.8907282 44.1612903,42.562396 L44.1612903,24.5325066 C44.1612903,24.5320744 44.1612903,24.5317862 44.1612903,24.531354 L44.1612903,24.531354 Z" id="path-3"></path>
        <filter x="-7.9%" y="-13.7%" width="111.3%" height="119.6%" filterUnits="objectBoundingBox" id="filter-4">
            <feMorphology radius="0.5" operator="erode" in="SourceAlpha" result="shadowSpreadOuter1"></feMorphology>
            <feOffset dx="1" dy="1" in="shadowSpreadOuter1" result="shadowOffsetOuter1"></feOffset>
            <feGaussianBlur stdDeviation="1.5" in="shadowOffsetOuter1" result="shadowBlurOuter1"></feGaussianBlur>
            <feColorMatrix values="0 0 0 0 0   0 0 0 0 0   0 0 0 0 0  0 0 0 0.5 0" type="matrix" in="shadowBlurOuter1"></feColorMatrix>
        </filter>
        <filter x="-6.2%" y="-18.8%" width="112.5%" height="137.6%" filterUnits="objectBoundingBox" id="filter-5">
            <feGaussianBlur stdDeviation="1.3012987" in="SourceGraphic"></feGaussianBlur>
        </filter>
    </defs>
    <g id="toss_it_pg11-android_logo" stroke="none" stroke-width="1" fill="none" fill-rule="evenodd">
        <g id="App-icon-/-Android-Copy" transform="translate(6.000000, 5.000000)">
            <g id="App-icon">
                <rect id="App-icon-Background" fill="url(#linearGradient-1)" x="0" y="0" width="74" height="76" rx="16.9168831"></rect>
                <g filter="url(#filter-2)" id="PAO">
                    <g transform="translate(14.919355, 14.843750)">
                        <g id="Fill-3-Copy-6">
                            <use fill="black" fill-opacity="1" filter="url(#filter-4)" xlink:href="#path-3"></use>
                            <use fill="#304848" fill-rule="evenodd" xlink:href="#path-3"></use>
                        </g>
                        <path d="M41.1040095,5.6028155 C40.0876401,6.22672487 38.6807889,6.93892279 36.9225472,7.71964113 C33.2730393,9.3401777 28.4254527,11.109357 23.2728693,12.7013047 C18.120286,14.2932525 13.1054523,15.5712278 9.15193569,16.2997856 C7.2472096,16.6508403 5.66917367,16.8607914 4.46165866,16.9240494 C3.13775803,16.993306 2.65725214,16.8620184 2.5144478,16.8042137 L2.0199092,15.3533694 C2.23688645,15.3701383 2.47416819,15.3787272 2.73431752,15.3787272 C2.74922369,15.3787272 2.76425875,15.3785908 2.77932243,15.3785908 C3.97931992,15.3742282 5.62013076,15.1939974 7.65616297,14.8430791 C11.7856613,14.1310175 17.1338435,12.7892388 22.7151405,11.0647764 C28.2965808,9.34031403 33.4530303,7.43660245 37.2348467,5.70423281 C39.0993361,4.8500861 40.5386916,4.07863833 41.5126765,3.41130724 C41.738059,3.25689772 41.9372376,3.10908666 42.1117874,2.96648347 L42.606369,4.41727317 C42.5263252,4.54389825 42.2183215,4.91881102 41.1040095,5.6028155 Z M3.05725608,12.8035536 C4.07365412,12.1796988 5.48051958,11.4675009 7.23880429,10.686728 C10.8882835,9.06628688 15.735727,7.297094 20.8883103,5.7051326 C26.0408937,4.11315757 31.0558705,2.83516857 35.0093728,2.10658356 C36.9140989,1.75556978 38.4920632,1.54553683 39.6995926,1.48233335 C40.6701409,1.43154972 41.1873466,1.48852282 41.4505316,1.54533233 C41.272402,1.73851465 40.8887935,2.073823 40.0720323,2.57516998 C39.0556628,3.19907935 37.6488117,3.91127727 35.89057,4.69200925 C32.2410621,6.31247765 27.3936186,8.08164326 22.2410353,9.67364556 C17.0884519,11.2655933 12.0734751,12.5435687 8.12000143,13.2721264 C6.21527533,13.6231811 4.63723941,13.8332686 3.42973871,13.8963903 C2.45926201,13.9472421 1.94208492,13.8902553 1.67881402,13.8334049 C1.85692925,13.6402226 2.24053782,13.3049824 3.05725608,12.8035536 Z M44.1037168,4.07203987 L43.072026,1.04517144 C43.072026,1.04491241 43.0718828,1.04463974 43.0718828,1.04439435 C42.9710763,0.748908555 42.6931427,0.35489569 41.9406742,0.155837462 C41.5354438,0.0486669438 41.0153743,-0.00226665934 40.3499659,7.73115707e-05 C39.1500257,0.00452267 37.5092005,0.184712561 35.4731683,0.535726341 C31.3436843,1.24767886 25.9956453,2.58945756 20.4142051,4.31391995 C14.8327648,6.0383687 9.67631529,7.94213482 5.89455623,9.67446355 C4.0299952,10.5287193 2.59071131,11.3000853 1.61668347,11.96743 C1.07675333,12.3372985 0.687001868,12.669403 0.425162886,12.9826938 C-0.0611565573,13.5644221 -0.0431860924,14.0388571 0.0575201069,14.3342884 L1.08945437,17.3619475 C1.19016057,17.6575151 1.46816581,18.0515144 2.22061996,18.250559 C2.61658591,18.3552619 3.12252252,18.40625 3.76623746,18.40625 C3.78114364,18.40625 3.79617869,18.40625 3.81124238,18.40625 C5.01123986,18.4018874 6.65205071,18.2216566 8.68808291,17.8706019 C12.8176385,17.1586767 18.1656775,15.816898 23.7471178,14.0924356 C29.3284148,12.3679732 34.4850075,10.4642343 38.2666807,8.7318647 C40.1313133,7.87773162 41.5705256,7.10628385 42.5446537,6.43893913 C43.0844836,6.06902975 43.4742494,5.7369252 43.7361456,5.42367536 C44.2224221,4.84189255 44.2045232,4.36752566 44.1037168,4.07203987 L44.1037168,4.07203987 Z" id="Fill-4-Copy-6" fill="#304848"></path>
                    </g>
                </g>
                <g id="White-fill" transform="translate(16.024328, 13.926894)" fill="#FFFFFF">
                    <path d="M0.0885755246,27.0418556 C3.66922069,28.4272722 10.7310486,29.1199806 21.2740594,29.1199806 C31.8170701,29.1199806 38.580511,28.4272722 41.564382,27.0418556 L41.564382,43.3699806 C39.1772852,44.9533139 32.4138443,45.7449806 21.2740594,45.7449806 C10.1342744,45.7449806 3.17190886,44.9533139 0.386962621,43.3699806 L0.0885755246,27.0418556 Z" id="Rectangle"></path>
                    <path d="M20.9756723,27.6356056 C32.676092,27.6356056 41.564382,26.7051973 41.564382,25.5574806 C41.564382,24.4097638 32.676092,23.1824806 20.9756723,23.1824806 C9.27525264,23.1824806 0.0885755246,24.4097638 0.0885755246,25.5574806 C0.0885755246,26.7051973 9.27525264,27.6356056 20.9756723,27.6356056 Z" id="Oval"></path>
                    <path d="M21.518552,10.8268851 C30.2901305,10.8675681 41.7906702,10.2341801 41.3980183,8.54583549 C41.0053664,6.85749092 25.5318649,6.19998538 21.1002059,6.32081632 C16.6685469,6.44164726 -0.9663497,6.64262613 -0.28991483,8.42317738 C0.38652004,10.2037286 12.7469734,10.7862021 21.518552,10.8268851 Z" id="Oval-Copy" transform="translate(20.549474, 8.567790) rotate(-18.000000) translate(-20.549474, -8.567790) "></path>
                    <path d="M0.312022193,9.80382177 C4.25784346,11.1971151 11.499976,11.9012309 22.0384197,11.916169 C32.5768634,11.9311071 39.3906058,11.1781472 42.4796469,9.65728931 L42.5295578,11.535187 C40.6972732,12.942741 33.9237635,13.6658289 22.2090288,13.7044509 C10.4942941,13.7430728 3.21192886,13.068829 0.361933093,11.6817195 L0.312022193,9.80382177 Z" id="Rectangle-Copy" transform="translate(21.420790, 11.681655) rotate(-17.000000) translate(-21.420790, -11.681655) "></path>
                </g>
            </g>
            <path d="M11.1776754,58.3524306 L55.661431,77.484375 C61.6352687,77.484375 66.3289983,75.5052083 69.7426199,71.546875 C73.1562414,67.5885417 74.4363495,65.0596065 73.5829441,63.9600694 L57.5815931,56.703125 L57.5815931,57.3628472 C57.5815931,58.9021991 52.7811878,60.1116898 43.1803773,60.9913194 C39.3713485,61.340304 33.6719085,61.1645065 28.4591344,60.9913194 C24.6562532,60.8649741 20.7784859,60.0017361 17.5782158,60.0017361 C15.4447023,60.0017361 13.3111888,59.4519676 11.1776754,58.3524306 Z" id="Path-3" fill="#D8D8D8" opacity="0.414318266" filter="url(#filter-5)"></path>
        </g>
    </g>
</svg>