<?xml version="1.0" encoding="UTF-8"?>
<svg width="85px" height="85px" viewBox="0 0 85 85" version="1.1" xmlns="http://www.w3.org/2000/svg" xmlns:xlink="http://www.w3.org/1999/xlink">
    <title>toss_it_pg11-logo</title>
    <defs>
        <path d="M69.7455298,70.6161083 C67.8287319,71.1324782 65.25649,71.5948706 62.0994663,71.9906268 C55.5471396,72.8119942 47.0474964,73.2643553 38.1663717,73.2643553 C29.285247,73.2643553 20.7856039,72.8119942 14.2332772,71.9906268 C11.0763474,71.5948706 8.50387072,71.1324782 6.58728406,70.6161083 C4.48608382,70.0500598 3.80645981,69.5838461 3.6144044,69.4140315 L3.6144044,42.4261784 C3.96259726,42.5740198 4.35168494,42.7178009 4.78523576,42.8589547 C6.65886173,43.4694272 9.31331583,44.0139802 12.6749545,44.4773279 C19.4930271,45.4171594 28.5459945,45.9347235 38.1663717,45.9347235 C47.7867489,45.9347235 56.8397164,45.4171594 63.6577889,44.4773279 C67.0192868,44.0139802 69.6739287,43.4694272 71.5475312,42.8589547 C71.9811289,42.7178009 72.3701227,42.5740198 72.7182686,42.4261784 L72.7182686,69.4140315 C72.5262367,69.5838461 71.8466127,70.0500598 69.7455298,70.6161083 Z M6.63339382,38.8218932 C8.54717987,38.3123785 11.1158975,37.8558892 14.2682142,37.465387 C20.8109663,36.6551596 29.2981894,36.2088041 38.1663365,36.2088041 C47.0344836,36.2088041 55.5217067,36.6551596 62.0644588,37.465387 C65.2168693,37.8558892 67.7855869,38.3123785 69.6993495,38.8218932 C71.2371108,39.2312489 72.0123206,39.5878149 72.392307,39.8147634 C72.0123206,40.0419475 71.2371108,40.3985135 69.6993495,40.8078692 C67.7855869,41.3173839 65.2168693,41.7736375 62.0644588,42.1641397 C55.5217067,42.9746027 47.0344836,43.4209583 38.1663365,43.4209583 C29.2981894,43.4209583 20.8109663,42.9746027 14.2682142,42.1641397 C11.1158975,41.7736375 8.54717987,41.3173839 6.63339382,40.8078692 C5.09556227,40.3985135 4.32025868,40.0419475 3.94036602,39.8147634 C4.32025868,39.5878149 5.09556227,39.2312489 6.63339382,38.8218932 Z M75,39.9317909 C75,39.388332 74.7762535,38.5893663 73.7107044,37.8712753 C73.1371635,37.4845558 72.3544021,37.1321902 71.3179049,36.7941387 C69.4480398,36.1841192 66.7986932,35.6404217 63.4439007,35.177599 C56.6394284,34.2388321 47.6045193,33.7218543 38.0033323,33.7218543 C28.4021452,33.7218543 19.3672361,34.2388321 12.5627638,35.177599 C9.20783076,35.6404217 6.55867161,36.1841192 4.68878303,36.7941387 C3.6522625,37.1321902 2.86954787,37.4845558 2.29584297,37.8712753 C1.2304111,38.5893663 1.00671141,39.388332 1.00671141,39.9317909 L1.00671141,39.9317909 L1.00671141,69.7900634 C1.00671141,70.3337608 1.23038767,71.132488 2.29584297,71.8508176 C2.86952444,72.237537 3.6522625,72.5899026 4.68878303,72.9279541 C6.55864818,73.5377351 9.20783076,74.0816711 12.5627638,74.5444939 C19.3672361,75.4832607 28.4021452,76 38.0033323,76 C47.6045193,76 56.6394284,75.4832607 63.4439007,74.5444939 C66.7986932,74.0816711 69.4480398,73.5377351 71.3179049,72.9279541 C72.3544021,72.5899026 73.1371635,72.237537 73.7107044,71.8508176 C74.7762535,71.132488 75,70.3337608 75,69.7900634 L75,39.9336995 C75,39.9329838 75,39.9325067 75,39.9317909 L75,39.9317909 Z" id="path-1"></path>
        <filter x="-1.4%" y="0.0%" width="102.7%" height="104.7%" filterUnits="objectBoundingBox" id="filter-2">
            <feGaussianBlur stdDeviation="0" in="SourceGraphic"></feGaussianBlur>
        </filter>
        <filter x="-2.7%" y="-2.4%" width="105.4%" height="109.5%" filterUnits="objectBoundingBox" id="filter-3">
            <feOffset dx="1" dy="2" in="SourceAlpha" result="shadowOffsetOuter1"></feOffset>
            <feColorMatrix values="0 0 0 0 0.521568627   0 0 0 0 0.733333333   0 0 0 0 0.705882353  0 0 0 1 0" type="matrix" in="shadowOffsetOuter1" result="shadowMatrixOuter1"></feColorMatrix>
            <feOffset dx="0" dy="1" in="SourceAlpha" result="shadowOffsetOuter2"></feOffset>
            <feGaussianBlur stdDeviation="0.5" in="shadowOffsetOuter2" result="shadowBlurOuter2"></feGaussianBlur>
            <feColorMatrix values="0 0 0 0 1   0 0 0 0 1   0 0 0 0 1  0 0 0 1 0" type="matrix" in="shadowBlurOuter2" result="shadowMatrixOuter2"></feColorMatrix>
            <feMerge>
                <feMergeNode in="shadowMatrixOuter1"></feMergeNode>
                <feMergeNode in="shadowMatrixOuter2"></feMergeNode>
            </feMerge>
        </filter>
        <filter x="-4.7%" y="-5.9%" width="109.5%" height="116.6%" filterUnits="objectBoundingBox" id="filter-4">
            <feGaussianBlur stdDeviation="2.5" in="SourceAlpha" result="shadowBlurInner1"></feGaussianBlur>
            <feOffset dx="0" dy="0" in="shadowBlurInner1" result="shadowOffsetInner1"></feOffset>
            <feComposite in="shadowOffsetInner1" in2="SourceAlpha" operator="arithmetic" k2="-1" k3="1" result="shadowInnerInner1"></feComposite>
            <feColorMatrix values="0 0 0 0 0.521568627   0 0 0 0 0.733333333   0 0 0 0 0.705882353  0 0 0 1 0" type="matrix" in="shadowInnerInner1"></feColorMatrix>
        </filter>
        <path d="M67.4057,9.4661208 C65.7377421,10.5459007 63.4289669,11.7784787 60.5435265,13.1296428 C54.5543403,15.9342533 46.5989941,18.996115 38.1431194,21.7512477 C29.6872448,24.5063805 21.4574304,26.7181314 14.9693372,27.9790228 C11.8435023,28.5865819 9.25379671,28.9499376 7.27215083,29.0594162 C5.09950521,29.1792764 4.31094978,28.9520611 4.07659441,28.8520203 L3.26500998,26.3410908 C3.62109009,26.3701121 4.01049176,26.3849767 4.43742132,26.3849767 C4.46188376,26.3849767 4.48655769,26.3847407 4.51127863,26.3847407 C6.48058753,26.3771905 9.17331269,26.0652708 12.5146333,25.4579477 C19.291529,24.2256057 28.0683997,21.9034324 37.227834,18.9189609 C46.3875032,15.9344893 54.8497226,12.6397969 61.0560394,9.64164048 C64.1158422,8.16339625 66.4779601,6.82827641 68.076361,5.67334796 C68.4462351,5.40611637 68.7731059,5.15030452 69.0595586,4.90350578 L69.8712135,7.41434084 C69.7398542,7.63348679 69.234391,8.28233625 67.4057,9.4661208 Z M5.2017389,21.9357594 C6.87053771,20.8549721 9.18043532,19.6211362 12.0673195,18.2684988 C18.0593092,15.4611916 26.0182067,12.3961819 34.4781059,9.63821395 C42.9380051,6.88022241 51.1719716,4.66619092 57.6631292,3.40396552 C60.7904519,2.79585734 63.3812725,2.43198914 65.363885,2.3224933 C66.9574043,2.234514 67.8065916,2.33321614 68.2387085,2.43163486 C67.946242,2.76631047 67.3164046,3.34721002 65.9753845,4.21576053 C64.3066328,5.29664229 61.9967587,6.53047813 59.109945,7.88304468 C53.1179083,10.6903991 45.1590108,13.7553616 36.6991116,16.5134004 C28.2392124,19.2713447 20.0052459,21.4853526 13.5141353,22.7475308 C10.3868126,23.3557098 7.79587445,23.7196725 5.81330893,23.8290266 C4.21990723,23.917124 3.37076694,23.8183982 2.93850898,23.7199087 C3.23095197,23.385233 3.8607894,22.8044516 5.2017389,21.9357594 Z M72.3887244,7.014939 L70.6953799,1.80050257 C70.6953799,1.80007982 70.6951449,1.7996101 70.6951449,1.79918736 C70.5296884,1.29015138 70.0735077,0.611381936 68.8384591,0.26846257 C68.1733426,0.0838389736 67.3197372,-0.00390479404 66.2275829,0.000133185325 C64.2580858,0.00779124351 61.5649513,0.318205959 58.2231519,0.922900494 C51.4453087,2.14938739 42.6674154,4.46088139 33.5064337,7.43162796 C24.3454521,10.402351 15.8820202,13.6819857 9.67490809,16.6662837 C6.61454936,18.1379177 4.25221048,19.4667566 2.65351001,20.6163973 C1.76730683,21.253573 1.12759632,21.8256924 0.697832319,22.3654011 C-0.100378052,23.3675496 -0.0708826005,24.184863 0.094409439,24.6938051 L1.78815342,29.9095802 C1.95344546,30.4187571 2.40974362,31.0975031 3.6447687,31.4403989 C4.29467923,31.6207716 5.12508782,31.7086093 6.18163604,31.7086093 C6.20610199,31.7086093 6.23077946,31.7086093 6.25550393,31.7086093 C8.22509501,31.7010937 10.918206,31.3906086 14.2600054,30.7858436 C21.0379661,29.5594037 29.8158594,27.2479097 38.9768411,24.2771631 C48.1375877,21.3064165 56.6012546,18.0268288 62.8082257,15.0424604 C65.868702,13.5710378 68.2309233,12.2420579 69.8297883,11.0924172 C70.715827,10.4551711 71.355561,9.88305166 71.785419,9.3434134 C72.5835589,8.34117102 72.5541809,7.52397498 72.3887244,7.014939 L72.3887244,7.014939 Z" id="path-5"></path>
        <filter x="-1.4%" y="0.0%" width="102.8%" height="106.3%" filterUnits="objectBoundingBox" id="filter-6">
            <feGaussianBlur stdDeviation="0" in="SourceGraphic"></feGaussianBlur>
        </filter>
        <filter x="-2.8%" y="-3.2%" width="105.5%" height="112.6%" filterUnits="objectBoundingBox" id="filter-7">
            <feOffset dx="1" dy="1" in="SourceAlpha" result="shadowOffsetOuter1"></feOffset>
            <feColorMatrix values="0 0 0 0 0.521568627   0 0 0 0 0.733333333   0 0 0 0 0.705882353  0 0 0 1 0" type="matrix" in="shadowOffsetOuter1" result="shadowMatrixOuter1"></feColorMatrix>
            <feOffset dx="0" dy="1" in="SourceAlpha" result="shadowOffsetOuter2"></feOffset>
            <feGaussianBlur stdDeviation="0.5" in="shadowOffsetOuter2" result="shadowBlurOuter2"></feGaussianBlur>
            <feColorMatrix values="0 0 0 0 1   0 0 0 0 1   0 0 0 0 1  0 0 0 1 0" type="matrix" in="shadowBlurOuter2" result="shadowMatrixOuter2"></feColorMatrix>
            <feMerge>
                <feMergeNode in="shadowMatrixOuter1"></feMergeNode>
                <feMergeNode in="shadowMatrixOuter2"></feMergeNode>
            </feMerge>
        </filter>
        <filter x="-4.8%" y="-7.9%" width="109.7%" height="122.1%" filterUnits="objectBoundingBox" id="filter-8">
            <feGaussianBlur stdDeviation="2.5" in="SourceAlpha" result="shadowBlurInner1"></feGaussianBlur>
            <feOffset dx="0" dy="0" in="shadowBlurInner1" result="shadowOffsetInner1"></feOffset>
            <feComposite in="shadowOffsetInner1" in2="SourceAlpha" operator="arithmetic" k2="-1" k3="1" result="shadowInnerInner1"></feComposite>
            <feColorMatrix values="0 0 0 0 0.521568627   0 0 0 0 0.733333333   0 0 0 0 0.705882353  0 0 0 1 0" type="matrix" in="shadowInnerInner1"></feColorMatrix>
        </filter>
    </defs>
    <g id="toss_it_pg11-logo" stroke="none" stroke-width="1" fill="none" fill-rule="evenodd">
        <g id="PAO-/-android-/-splash-screen-Copy" transform="translate(5.000000, 5.000000)">
            <g id="bottom" filter="url(#filter-2)">
                <use fill="black" fill-opacity="1" filter="url(#filter-3)" xlink:href="#path-1"></use>
                <use fill="#FFFFFF" fill-rule="evenodd" xlink:href="#path-1"></use>
                <use fill="black" fill-opacity="1" filter="url(#filter-4)" xlink:href="#path-1"></use>
            </g>
            <g id="lid" filter="url(#filter-6)">
                <use fill="black" fill-opacity="1" filter="url(#filter-7)" xlink:href="#path-5"></use>
                <use fill="#FFFFFF" fill-rule="evenodd" xlink:href="#path-5"></use>
                <use fill="black" fill-opacity="1" filter="url(#filter-8)" xlink:href="#path-5"></use>
            </g>
        </g>
    </g>
</svg>