<?xml version="1.0" encoding="UTF-8"?>
<svg width="50px" height="50px" viewBox="0 0 50 50" version="1.1" xmlns="http://www.w3.org/2000/svg" xmlns:xlink="http://www.w3.org/1999/xlink">
    <title>toss_it_pg11-alert_icon</title>
    <defs>
        <filter color-interpolation-filters="auto" id="filter-1">
            <feColorMatrix in="SourceGraphic" type="matrix" values="0 0 0 0 0.188235 0 0 0 0 0.282353 0 0 0 0 0.282353 0 0 0 1.000000 0"></feColorMatrix>
        </filter>
    </defs>
    <g id="toss_it_pg11-alert_icon" stroke="none" stroke-width="1" fill="none" fill-rule="evenodd">
        <g filter="url(#filter-1)" id="icon-/-Learn-More-/-Alert-Copy">
            <g transform="translate(4.673333, 2.000000)">
                <path d="M39.2994478,8.53608247 L22.9240817,8.53608247 C21.9846461,8.53608247 21.2235294,9.34376377 21.2235294,10.3401734 L21.2235294,23.4693918 C21.2235294,24.4658014 21.9851294,25.2734827 22.9240817,25.2734827 L24.9401953,25.2734827 L27.5115617,27.9793814 L29.9026764,25.2734827 L39.2994478,25.2734827 C40.2388833,25.2734827 41,24.4658014 41,23.4693918 L41,10.339698 C41,9.34376377 40.2384,8.53608247 39.2994478,8.53608247 Z M35.6936366,19.1757717 C35.6936366,19.3453457 35.5541399,19.4827101 35.3819337,19.4827101 L33.1894306,19.4827101 C33.0965932,20.1979523 32.5246567,20.76162 31.7978309,20.8530384 C30.9165967,20.9638773 30.1108831,20.3504742 29.9983237,19.4827101 L27.8058206,19.4827101 C27.6336143,19.4827101 27.4941176,19.3453457 27.4941176,19.1757717 L27.4941176,18.3406909 C27.4941176,18.2649036 27.522979,18.1924321 27.5739675,18.1360653 L28.4417331,17.1844615 L28.4417331,15.7525561 C28.4446192,14.5186448 29.1877998,13.4026775 30.3360018,12.9081656 C30.3360018,12.9081656 30.5207147,12.822905 30.8444432,12.7584858 C30.839152,12.7210658 30.8328987,12.6841195 30.8328987,12.6452786 C30.8328987,12.2095019 31.1917419,11.8556701 31.6347641,11.8556701 C32.0777863,11.8556701 32.4366295,12.2090282 32.4366295,12.6452786 C32.4366295,12.6926456 32.4303762,12.7390653 32.4221988,12.784064 C32.6843564,12.8432728 32.8531955,12.907692 32.8531955,12.907692 C34.0013975,13.4017301 34.7445781,14.5172238 34.7474643,15.7511351 L34.7474643,17.2564594 L35.1351689,17.6145542 L35.6142678,18.1426967 C35.6657373,18.1990634 35.6941176,18.271535 35.6941176,18.3473223 L35.6941176,19.1757717 L35.6936366,19.1757717 Z" id="Shape" fill="#000000" fill-rule="nonzero"></path>
                <path d="M30.1279255,26.0986816 L30.1279255,37.0732673 L9.42646391,37.0732673 L9.42646391,3.69831221 L30.1279255,3.69831221 L30.1279255,8.0460473 L32.3176471,8.0460473 L32.3176471,1.9100395 C32.3176471,0.854727338 31.6234628,0 30.7661115,0 L8.78682963,0 C7.92947833,0 7.23529412,0.855199302 7.23529412,1.9100395 L7.23529412,44.0899605 C7.23529412,45.1452727 7.92996108,46 8.78682963,46 L30.7661115,46 C31.6234628,46 32.3176471,45.1448007 32.3176471,44.0899605 L32.3176471,26.0986816 L30.1279255,26.0986816 Z M20.0176471,43.628866 C18.8189419,43.628866 17.8470588,42.6733561 17.8470588,41.4948454 C17.8470588,40.3163347 18.8189419,39.3608247 20.0176471,39.3608247 C21.2163522,39.3608247 22.1882353,40.3163347 22.1882353,41.4948454 C22.1882353,42.6733561 21.2163522,43.628866 20.0176471,43.628866 Z" id="Shape" fill="#000000" fill-rule="nonzero"></path>
            </g>
        </g>
    </g>
</svg>