<?xml version="1.0" encoding="UTF-8"?>
<svg width="234px" height="185px" viewBox="0 0 234 185" version="1.1" xmlns="http://www.w3.org/2000/svg" xmlns:xlink="http://www.w3.org/1999/xlink">
    <title>ji_logo</title>
    <defs>
        <filter color-interpolation-filters="auto" id="filter-1">
            <feColorMatrix in="SourceGraphic" type="matrix" values="0 0 0 0 0.000000 0 0 0 0 0.000000 0 0 0 0 0.000000 0 0 0 1.000000 0"></feColorMatrix>
        </filter>
    </defs>
    <g id="resources" stroke="none" stroke-width="1" fill="none" fill-rule="evenodd">
        <g filter="url(#filter-1)" id="ji_logo">
            <g transform="translate(0.855717, 0.440000)">
                <path d="M106.49295,19.504 C109.191616,19.504 111.491616,18.5533333 113.39295,16.652 C115.294283,14.7506667 116.24495,12.4506667 116.24495,9.752 C116.24495,7.05333333 115.294283,4.75333333 113.39295,2.852 C111.491616,0.950666667 109.191616,0 106.49295,0 C103.794283,0 101.494283,0.950666667 99.5929496,2.852 C97.6916163,4.75333333 96.7409496,7.05333333 96.7409496,9.752 C96.7409496,12.4506667 97.6916163,14.7506667 99.5929496,16.652 C101.494283,18.5533333 103.794283,19.504 106.49295,19.504 Z M86.8049496,184.184 C88.522283,184.184 90.4236163,183.969333 92.5089496,183.54 C94.594283,183.110667 96.6489496,182.313333 98.6729496,181.148 C100.69695,179.982667 102.659616,178.418667 104.56095,176.456 C106.462283,174.493333 108.14895,172.04 109.62095,169.096 C110.234283,167.869333 110.847616,166.550667 111.46095,165.14 C112.074283,163.729333 112.626283,161.797333 113.11695,159.344 C113.607616,156.890667 114.006283,153.732 114.31295,149.868 C114.619616,146.004 114.77295,141.128 114.77295,135.24 L114.77295,135.24 L114.77295,52.624 L84.7809496,52.624 L84.7809496,55.2 L98.9489496,55.2 L98.9489496,163.392 C98.9489496,169.770667 97.998283,174.401333 96.0969496,177.284 C94.1956163,180.166667 91.466283,181.608 87.9089496,181.608 C85.946283,181.608 84.1676163,181.025333 82.5729496,179.86 C80.978283,178.694667 80.1809496,176.885333 80.1809496,174.432 C80.1809496,172.346667 80.3956163,170.629333 80.8249496,169.28 C81.254283,167.930667 81.4689496,166.52 81.4689496,165.048 C81.4689496,163.085333 80.9169496,161.521333 79.8129496,160.356 C78.7089496,159.190667 77.0529496,158.608 74.8449496,158.608 C72.514283,158.608 70.5516163,159.344 68.9569496,160.816 C67.362283,162.288 66.5649496,164.496 66.5649496,167.44 C66.5649496,170.261333 67.270283,172.745333 68.6809496,174.892 C70.0916163,177.038667 71.8089496,178.786667 73.8329496,180.136 C75.8569496,181.485333 78.034283,182.497333 80.3649496,183.172 C82.6956163,183.846667 84.842283,184.184 86.8049496,184.184 Z" id="j" fill="#0E0E0E" fill-rule="nonzero"></path>
                <path d="M106.49295,19.504 C109.191616,19.504 111.491616,18.5533333 113.39295,16.652 C115.294283,14.7506667 116.24495,12.4506667 116.24495,9.752 C116.24495,7.05333333 115.294283,4.75333333 113.39295,2.852 C111.491616,0.950666667 109.191616,1.13686838e-13 106.49295,1.13686838e-13 C103.794283,1.13686838e-13 101.494283,0.950666667 99.5929496,2.852 C97.6916163,4.75333333 96.7409496,7.05333333 96.7409496,9.752 C96.7409496,12.4506667 97.6916163,14.7506667 99.5929496,16.652 C101.494283,18.5533333 103.794283,19.504 106.49295,19.504 Z M128.94095,131.56 L128.94095,128.984 L114.77295,128.984 L114.77295,52.624 L84.7809496,52.624 L84.7809496,55.2 L98.9489496,55.2 L98.9489496,128.984 L84.7809496,128.984 L84.7809496,131.56 L128.94095,131.56 Z" id="i" fill="#0E0E0E" fill-rule="nonzero"></path>
                <path d="M3.8,99.92 C4.57333333,99.92 5.20666667,99.7766667 5.7,99.49 C6.19333333,99.2033333 6.58,98.84 6.86,98.4 C7.14,97.96 7.33,97.48 7.43,96.96 C7.53,96.44 7.58,95.9466667 7.58,95.48 L7.58,95.48 L7.58,85.4 L6.14,85.4 L6.14,95.38 C6.14,95.8066667 6.10333333,96.2166667 6.03,96.61 C5.95666667,97.0033333 5.82333333,97.3533333 5.63,97.66 C5.43666667,97.9666667 5.18,98.21 4.86,98.39 C4.54,98.57 4.13333333,98.66 3.64,98.66 C3,98.66 2.48333333,98.47 2.09,98.09 C1.69666667,97.71 1.44666667,97.24 1.34,96.68 L1.34,96.68 L0,97.04 C0.173333333,97.88 0.593333333,98.57 1.26,99.11 C1.92666667,99.65 2.77333333,99.92 3.8,99.92 Z M13.534761,99.56 L15.074761,95.84 L22.394761,95.84 L23.954761,99.56 L25.554761,99.56 L19.474761,85.4 L18.074761,85.4 L11.954761,99.56 L13.534761,99.56 Z M21.854761,94.52 L15.614761,94.52 L18.734761,87 L21.854761,94.52 Z M36.549522,99.92 C37.189522,99.92 37.779522,99.85 38.319522,99.71 C38.859522,99.57 39.3528553,99.38 39.799522,99.14 C40.2461887,98.9 40.639522,98.62 40.979522,98.3 C41.319522,97.98 41.609522,97.64 41.849522,97.28 L41.849522,97.28 L40.729522,96.56 C40.2361887,97.2933333 39.6228553,97.8266667 38.889522,98.16 C38.1561887,98.4933333 37.3828553,98.66 36.569522,98.66 C35.6628553,98.66 34.8461887,98.4933333 34.119522,98.16 C33.3928553,97.8266667 32.7761887,97.3766667 32.269522,96.81 C31.7628553,96.2433333 31.3728553,95.5866667 31.099522,94.84 C30.8261887,94.0933333 30.689522,93.3066667 30.689522,92.48 C30.689522,91.6533333 30.8228553,90.8666667 31.089522,90.12 C31.3561887,89.3733333 31.7428553,88.7166667 32.249522,88.15 C32.7561887,87.5833333 33.3728553,87.1333333 34.099522,86.8 C34.8261887,86.4666667 35.649522,86.3 36.569522,86.3 C37.0228553,86.3 37.4461887,86.3533333 37.839522,86.46 C38.2328553,86.5666667 38.5961887,86.7066667 38.929522,86.88 C39.2628553,87.0533333 39.5528553,87.2533333 39.799522,87.48 C40.0461887,87.7066667 40.2428553,87.9333333 40.389522,88.16 L40.389522,88.16 L41.589522,87.28 C41.349522,86.9333333 41.049522,86.6233333 40.689522,86.35 C40.329522,86.0766667 39.929522,85.8433333 39.489522,85.65 C39.049522,85.4566667 38.579522,85.3066667 38.079522,85.2 C37.579522,85.0933333 37.069522,85.04 36.549522,85.04 C35.4961887,85.04 34.519522,85.2266667 33.619522,85.6 C32.719522,85.9733333 31.939522,86.49 31.279522,87.15 C30.619522,87.81 30.1028553,88.5933333 29.729522,89.5 C29.3561887,90.4066667 29.169522,91.4 29.169522,92.48 C29.169522,93.56 29.3528553,94.5533333 29.719522,95.46 C30.0861887,96.3666667 30.5961887,97.15 31.249522,97.81 C31.9028553,98.47 32.6828553,98.9866667 33.589522,99.36 C34.4961887,99.7333333 35.4828553,99.92 36.549522,99.92 Z M55.024283,99.56 L55.024283,98.28 L48.424283,98.28 L48.424283,85.4 L46.984283,85.4 L46.984283,99.56 L55.024283,99.56 Z M62.899044,99.56 L62.899044,93.46 L68.199044,85.4 L66.519044,85.4 L62.219044,92.26 L57.959044,85.4 L56.159044,85.4 L61.459044,93.46 L61.459044,99.56 L62.899044,99.56 Z M74.173805,99.56 L74.173805,87.38 L74.213805,87.38 L82.453805,99.56 L84.253805,99.56 L84.253805,85.4 L82.813805,85.4 L82.813805,97.46 L82.773805,97.46 L74.533805,85.4 L72.733805,85.4 L72.733805,99.56 L74.173805,99.56 Z" id="JACLYN" fill="#000000" fill-rule="nonzero"></path>
                <path d="M129.545239,99.56 L129.545239,85.4 L128.105239,85.4 L128.105239,99.56 L129.545239,99.56 Z M137.4,99.56 L137.4,92.98 L139.92,92.98 C140.64,92.98 141.296667,92.9 141.89,92.74 C142.483333,92.58 142.99,92.3433333 143.41,92.03 C143.83,91.7166667 144.156667,91.3233333 144.39,90.85 C144.623333,90.3766667 144.74,89.82 144.74,89.18 C144.74,88.54 144.626667,87.9833333 144.4,87.51 C144.173333,87.0366667 143.85,86.6433333 143.43,86.33 C143.01,86.0166667 142.506667,85.7833333 141.92,85.63 C141.333333,85.4766667 140.68,85.4 139.96,85.4 L139.96,85.4 L135.96,85.4 L135.96,99.56 L137.4,99.56 Z M139.84,91.76 L137.4,91.76 L137.4,86.64 L139.84,86.64 C140.933333,86.64 141.783333,86.8433333 142.39,87.25 C142.996667,87.6566667 143.3,88.3 143.3,89.18 C143.3,90.02 143.006667,90.66 142.42,91.1 C141.833333,91.54 140.973333,91.76 139.84,91.76 L139.84,91.76 Z M151.654761,99.56 L151.654761,92.98 L154.174761,92.98 C154.894761,92.98 155.551428,92.9 156.144761,92.74 C156.738094,92.58 157.244761,92.3433333 157.664761,92.03 C158.084761,91.7166667 158.411428,91.3233333 158.644761,90.85 C158.878094,90.3766667 158.994761,89.82 158.994761,89.18 C158.994761,88.54 158.881428,87.9833333 158.654761,87.51 C158.428094,87.0366667 158.104761,86.6433333 157.684761,86.33 C157.264761,86.0166667 156.761428,85.7833333 156.174761,85.63 C155.588094,85.4766667 154.934761,85.4 154.214761,85.4 L154.214761,85.4 L150.214761,85.4 L150.214761,99.56 L151.654761,99.56 Z M154.094761,91.76 L151.654761,91.76 L151.654761,86.64 L154.094761,86.64 C155.188094,86.64 156.038094,86.8433333 156.644761,87.25 C157.251428,87.6566667 157.554761,88.3 157.554761,89.18 C157.554761,90.02 157.261428,90.66 156.674761,91.1 C156.088094,91.54 155.228094,91.76 154.094761,91.76 L154.094761,91.76 Z M171.089522,99.92 C172.142855,99.92 173.119522,99.7333333 174.019522,99.36 C174.919522,98.9866667 175.699522,98.47 176.359522,97.81 C177.019522,97.15 177.536189,96.3666667 177.909522,95.46 C178.282855,94.5533333 178.469522,93.56 178.469522,92.48 C178.469522,91.4 178.282855,90.4066667 177.909522,89.5 C177.536189,88.5933333 177.019522,87.81 176.359522,87.15 C175.699522,86.49 174.919522,85.9733333 174.019522,85.6 C173.119522,85.2266667 172.142855,85.04 171.089522,85.04 C170.036189,85.04 169.059522,85.2266667 168.159522,85.6 C167.259522,85.9733333 166.479522,86.49 165.819522,87.15 C165.159522,87.81 164.642855,88.5933333 164.269522,89.5 C163.896189,90.4066667 163.709522,91.4 163.709522,92.48 C163.709522,93.56 163.896189,94.5533333 164.269522,95.46 C164.642855,96.3666667 165.159522,97.15 165.819522,97.81 C166.479522,98.47 167.259522,98.9866667 168.159522,99.36 C169.059522,99.7333333 170.036189,99.92 171.089522,99.92 Z M171.089522,98.64 C170.182855,98.64 169.366189,98.4733333 168.639522,98.14 C167.912855,97.8066667 167.296189,97.36 166.789522,96.8 C166.282855,96.24 165.896189,95.5866667 165.629522,94.84 C165.362855,94.0933333 165.229522,93.3066667 165.229522,92.48 C165.229522,91.6533333 165.362855,90.8666667 165.629522,90.12 C165.896189,89.3733333 166.282855,88.7166667 166.789522,88.15 C167.296189,87.5833333 167.912855,87.1333333 168.639522,86.8 C169.366189,86.4666667 170.182855,86.3 171.089522,86.3 C171.996189,86.3 172.812855,86.4666667 173.539522,86.8 C174.266189,87.1333333 174.882855,87.5833333 175.389522,88.15 C175.896189,88.7166667 176.282855,89.3733333 176.549522,90.12 C176.816189,90.8666667 176.949522,91.6533333 176.949522,92.48 C176.949522,93.3066667 176.816189,94.0933333 176.549522,94.84 C176.282855,95.5866667 175.896189,96.24 175.389522,96.8 C174.882855,97.36 174.266189,97.8066667 173.539522,98.14 C172.812855,98.4733333 171.996189,98.64 171.089522,98.64 Z M192.164283,99.56 L192.164283,98.28 L185.564283,98.28 L185.564283,85.4 L184.124283,85.4 L184.124283,99.56 L192.164283,99.56 Z M198.419044,99.56 L198.419044,85.4 L196.979044,85.4 L196.979044,99.56 L198.419044,99.56 Z M209.373805,99.56 L209.373805,86.68 L214.113805,86.68 L214.113805,85.4 L203.193805,85.4 L203.193805,86.68 L207.933805,86.68 L207.933805,99.56 L209.373805,99.56 Z M224.908566,99.92 C225.961899,99.92 226.938566,99.7333333 227.838566,99.36 C228.738566,98.9866667 229.518566,98.47 230.178566,97.81 C230.838566,97.15 231.355233,96.3666667 231.728566,95.46 C232.101899,94.5533333 232.288566,93.56 232.288566,92.48 C232.288566,91.4 232.101899,90.4066667 231.728566,89.5 C231.355233,88.5933333 230.838566,87.81 230.178566,87.15 C229.518566,86.49 228.738566,85.9733333 227.838566,85.6 C226.938566,85.2266667 225.961899,85.04 224.908566,85.04 C223.855233,85.04 222.878566,85.2266667 221.978566,85.6 C221.078566,85.9733333 220.298566,86.49 219.638566,87.15 C218.978566,87.81 218.461899,88.5933333 218.088566,89.5 C217.715233,90.4066667 217.528566,91.4 217.528566,92.48 C217.528566,93.56 217.715233,94.5533333 218.088566,95.46 C218.461899,96.3666667 218.978566,97.15 219.638566,97.81 C220.298566,98.47 221.078566,98.9866667 221.978566,99.36 C222.878566,99.7333333 223.855233,99.92 224.908566,99.92 Z M224.908566,98.64 C224.001899,98.64 223.185233,98.4733333 222.458566,98.14 C221.731899,97.8066667 221.115233,97.36 220.608566,96.8 C220.101899,96.24 219.715233,95.5866667 219.448566,94.84 C219.181899,94.0933333 219.048566,93.3066667 219.048566,92.48 C219.048566,91.6533333 219.181899,90.8666667 219.448566,90.12 C219.715233,89.3733333 220.101899,88.7166667 220.608566,88.15 C221.115233,87.5833333 221.731899,87.1333333 222.458566,86.8 C223.185233,86.4666667 224.001899,86.3 224.908566,86.3 C225.815233,86.3 226.631899,86.4666667 227.358566,86.8 C228.085233,87.1333333 228.701899,87.5833333 229.208566,88.15 C229.715233,88.7166667 230.101899,89.3733333 230.368566,90.12 C230.635233,90.8666667 230.768566,91.6533333 230.768566,92.48 C230.768566,93.3066667 230.635233,94.0933333 230.368566,94.84 C230.101899,95.5866667 229.715233,96.24 229.208566,96.8 C228.701899,97.36 228.085233,97.8066667 227.358566,98.14 C226.631899,98.4733333 225.815233,98.64 224.908566,98.64 Z" id="IPPOLITO" fill="#000000" fill-rule="nonzero"></path>
            </g>
        </g>
    </g>
</svg>
